<?xml version="1.0" encoding="UTF-8" standalone="no"?>
<!-- Created with Inkscape (http://www.inkscape.org/) -->

<svg
   xmlns:dc="http://purl.org/dc/elements/1.1/"
   xmlns:cc="http://creativecommons.org/ns#"
   xmlns:rdf="http://www.w3.org/1999/02/22-rdf-syntax-ns#"
   xmlns:svg="http://www.w3.org/2000/svg"
   xmlns="http://www.w3.org/2000/svg"
   xmlns:sodipodi="http://sodipodi.sourceforge.net/DTD/sodipodi-0.dtd"
   xmlns:inkscape="http://www.inkscape.org/namespaces/inkscape"
   width="210mm"
   height="297mm"
   viewBox="0 0 744.09448819 1052.3622047"
   id="svg2"
   version="1.1"
   inkscape:version="0.91 r13725"
   sodipodi:docname="edge_into_container_using_nodepath.svg">
  <defs
     id="defs4" />
  <sodipodi:namedview
     id="base"
     pagecolor="#ffffff"
     bordercolor="#666666"
     borderopacity="1.0"
     inkscape:pageopacity="0.0"
     inkscape:pageshadow="2"
     inkscape:zoom="2"
     inkscape:cx="284.96429"
     inkscape:cy="500"
     inkscape:document-units="px"
     inkscape:current-layer="layer1"
     showgrid="false"
     inkscape:window-width="3840"
     inkscape:window-height="2076"
     inkscape:window-x="0"
     inkscape:window-y="53"
     inkscape:window-maximized="1" />
  <metadata
     id="metadata7">
    <rdf:RDF>
      <cc:Work
         rdf:about="">
        <dc:format>image/svg+xml</dc:format>
        <dc:type
           rdf:resource="http://purl.org/dc/dcmitype/StillImage" />
        <dc:title />
      </cc:Work>
    </rdf:RDF>
  </metadata>
  <g
     inkscape:label="Layer 1"
     inkscape:groupmode="layer"
     id="layer1">
    <rect
       style="fill:#ffffff;fill-opacity:1;stroke:none;stroke-width:0.90600002;stroke-miterlimit:4;stroke-dasharray:none"
       id="rect5586"
       width="316.5"
       height="236.5"
       x="265.5"
       y="629.36218" />
    <text
       xml:space="preserve"
       style="font-style:normal;font-weight:normal;font-size:13.75px;line-height:125%;font-family:sans-serif;letter-spacing:0px;word-spacing:0px;fill:#000000;fill-opacity:1;stroke:none;stroke-width:1px;stroke-linecap:butt;stroke-linejoin:miter;stroke-opacity:1"
       x="307.5"
       y="589.86218"
       id="text3405"
       sodipodi:linespacing="125%"><tspan
         sodipodi:role="line"
         id="tspan3407"
         x="307.5"
         y="589.86218" /></text>
    <text
       xml:space="preserve"
       style="font-style:normal;font-weight:normal;font-size:13.75px;line-height:125%;font-family:sans-serif;letter-spacing:0px;word-spacing:0px;fill:#000000;fill-opacity:1;stroke:none;stroke-width:1px;stroke-linecap:butt;stroke-linejoin:miter;stroke-opacity:1"
       x="304.45627"
       y="741.21722"
       id="text3340-0"
       sodipodi:linespacing="125%"
       inkscape:export-xdpi="90"
       inkscape:export-ydpi="90"><tspan
         sodipodi:role="line"
         id="tspan3342-1"
         x="304.45627"
         y="741.21722">b</tspan></text>
    <text
       xml:space="preserve"
       style="font-style:normal;font-weight:normal;font-size:13.75px;line-height:125%;font-family:sans-serif;letter-spacing:0px;word-spacing:0px;fill:#000000;fill-opacity:1;stroke:none;stroke-width:1px;stroke-linecap:butt;stroke-linejoin:miter;stroke-opacity:1"
       x="350.45627"
       y="771.71722"
       id="text3344-3"
       sodipodi:linespacing="125%"
       inkscape:export-xdpi="90"
       inkscape:export-ydpi="90"><tspan
         sodipodi:role="line"
         id="tspan3346-0"
         x="350.45627"
         y="771.71722">c</tspan></text>
    <text
       xml:space="preserve"
       style="font-style:normal;font-weight:normal;font-size:13.75px;line-height:125%;font-family:sans-serif;letter-spacing:0px;word-spacing:0px;fill:#000000;fill-opacity:1;stroke:none;stroke-width:1px;stroke-linecap:butt;stroke-linejoin:miter;stroke-opacity:1"
       x="353.45627"
       y="814.71722"
       id="text3348-1"
       sodipodi:linespacing="125%"
       inkscape:export-xdpi="90"
       inkscape:export-ydpi="90"><tspan
         sodipodi:role="line"
         id="tspan3350-3"
         x="353.45627"
         y="814.71722">d</tspan></text>
    <path
       style="fill:none;fill-rule:evenodd;stroke:#000000;stroke-width:1px;stroke-linecap:butt;stroke-linejoin:miter;stroke-opacity:1"
       d="m 351.95627,754.71723 c -0.20601,3.60049 -2.05719,0.5286 -3,1 -0.42164,0.21082 -0.55279,0.85093 -1,1 -0.31623,0.10541 -0.70186,-0.14907 -1,0 -0.14907,0.0745 0.11785,0.38215 0,0.5 -0.11785,0.11786 -0.34189,-0.0527 -0.5,0 -0.35355,0.11786 -0.68991,0.29328 -1,0.5 -0.39223,0.26149 -0.66667,0.66667 -1,1 -0.66667,0.66667 -1.33333,1.33334 -2,2 -0.16667,0.16667 -0.33333,0.33334 -0.5,0.5 -0.16667,0.16667 -0.39459,0.28919 -0.5,0.5 -0.0745,0.14908 0.0745,0.35093 0,0.5 -0.21082,0.42164 -0.78918,0.57837 -1,1 -0.0745,0.14908 0.0745,0.35093 0,0.5 -0.10541,0.21082 -0.39459,0.28919 -0.5,0.5 -0.0745,0.14908 0.0745,0.35093 0,0.5 -0.10541,0.21082 -0.39459,0.28919 -0.5,0.5 -0.0657,0.13148 0,1.73854 0,2 0,0.47092 -0.0948,2.21557 0,2.5 0.0745,0.22361 0.39459,0.28919 0.5,0.5 0.15713,0.31427 -0.15713,1.68574 0,2 0.10541,0.21082 0.39459,0.28919 0.5,0.5 0.14907,0.29815 -0.14907,0.70186 0,1 0.10541,0.21082 0.39459,0.28919 0.5,0.5 0.0745,0.14908 -0.0745,0.35093 0,0.5 0.10541,0.21082 0.39459,0.28919 0.5,0.5 0.0745,0.14908 -0.0745,0.35093 0,0.5 0.10541,0.21082 0.39459,0.28919 0.5,0.5 0.0745,0.14908 -0.0745,0.35093 0,0.5 0.0664,0.13276 1.36724,1.43363 1.5,1.5 0.14907,0.0745 0.34189,-0.0527 0.5,0 0.35355,0.11786 0.64645,0.38215 1,0.5 0.53131,0.17711 1.46869,-0.1771 2,0 0.35355,0.11786 0.64645,0.38215 1,0.5 0.47434,0.15812 1.01493,-0.12126 1.5,0 0.36155,0.0904 0.64645,0.38215 1,0.5 0.15811,0.0527 0.34189,-0.0527 0.5,0 0.35355,0.11786 0.63845,0.40962 1,0.5 0.32338,0.0809 0.68377,-0.1054 1,0 0.22361,0.0745 0.28918,0.3946 0.5,0.5 0.14907,0.0745 0.35093,-0.0745 0.5,0 0.21082,0.10541 0.28918,0.3946 0.5,0.5 0.14907,0.0745 0.35093,-0.0745 0.5,0 0.21082,0.10541 0.28918,0.3946 0.5,0.5 0.15217,0.0761 1.27482,0 1.5,0 0.56147,0 3.14255,0.11916 3.5,0 0.35355,-0.11785 0.64645,-0.38214 1,-0.5 0.31623,-0.1054 0.70186,0.14908 1,0 0.21082,-0.1054 0.28918,-0.39459 0.5,-0.5 0.68968,-0.34483 0.44724,0.60553 1,-0.5 0.0745,-0.14907 -0.11785,-0.38214 0,-0.5 0.11785,-0.11785 0.38215,0.11786 0.5,0 0.11785,-0.11785 -0.0745,-0.35092 0,-0.5 0.10541,-0.21081 0.39459,-0.28918 0.5,-0.5 0.0745,-0.14907 -0.0745,-0.35092 0,-0.5 0.21082,-0.42163 0.78918,-0.57836 1,-1 0.14907,-0.29814 -0.14907,-0.70185 0,-1 0.10541,-0.21081 0.39459,-0.28918 0.5,-0.5 0.14907,-0.29814 -0.14907,-0.70185 0,-1 0.10541,-0.21081 0.39459,-0.28918 0.5,-0.5 0.0761,-0.15216 0,-1.27482 0,-1.5 0,-0.34777 0.0904,-2.31918 0,-2.5 -0.10541,-0.21081 -0.39459,-0.28918 -0.5,-0.5 -0.2,-0.4 0.2,-1.1 0,-1.5 -0.10541,-0.21081 -0.39459,-0.28918 -0.5,-0.5 -0.2,-0.4 0.2,-1.1 0,-1.5 -0.10541,-0.21081 -0.39459,-0.28918 -0.5,-0.5 -0.0745,-0.14907 0.0745,-0.35092 0,-0.5 -0.10541,-0.21081 -0.36926,-0.30388 -0.5,-0.5 -0.20672,-0.31008 -0.23648,-0.73647 -0.5,-1 -0.11785,-0.11785 -0.38215,0.11786 -0.5,0 -0.11785,-0.11785 0.0745,-0.35092 0,-0.5 -0.10541,-0.21081 -0.33333,-0.33333 -0.5,-0.5 -0.16667,-0.16666 -0.28918,-0.39459 -0.5,-0.5 -0.14907,-0.0745 -0.38215,0.11786 -0.5,0 -0.11785,-0.11785 0.11785,-0.38214 0,-0.5 -0.26352,-0.26352 -0.68991,-0.29327 -1,-0.5 -0.19612,-0.13074 -0.28918,-0.39459 -0.5,-0.5 -0.14907,-0.0745 -0.36132,0.0925 -0.5,0 -0.36979,-0.24652 -1.58869,-1.79434 -2,-2 -0.14907,-0.0745 -0.35093,0.0745 -0.5,0 -2.08088,-1.04044 0.53452,0.0345 -0.5,-1 -0.93296,-0.93296 -1.46476,-0.23237 -2,-0.5 -0.21082,-0.1054 -0.28918,-0.39459 -0.5,-0.5 -0.14907,-0.0745 -0.33333,0 -0.5,0 -0.83333,-0.66666 -1.66667,-1.33333 -2.5,-2 z"
       id="path3352-2"
       inkscape:connector-curvature="0"
       inkscape:export-xdpi="90"
       inkscape:export-ydpi="90" />
    <path
       style="fill:none;fill-rule:evenodd;stroke:#000000;stroke-width:1px;stroke-linecap:butt;stroke-linejoin:miter;stroke-opacity:1"
       d="m 358.45627,793.71723 c 0.24415,2.00377 -2.33114,0.66558 -3,1 -0.42164,0.21082 -0.57836,0.78919 -1,1 -0.29814,0.14908 -0.68377,-0.1054 -1,0 -0.35355,0.11786 -0.68991,0.29328 -1,0.5 -0.19612,0.13075 -0.27639,0.42547 -0.5,0.5 -0.31623,0.10541 -0.67662,-0.0808 -1,0 -0.90497,-0.30136 -0.92991,0.80998 -1.5,1 -0.31623,0.10541 -0.67314,-0.0654 -1,0 -0.5808,0.11616 -1.92857,0.61905 -2.5,1 -0.19612,0.13075 -0.30388,0.36926 -0.5,0.5 -0.31009,0.20673 -0.68991,0.29328 -1,0.5 -0.39223,0.26149 -0.60777,0.73852 -1,1 -0.31009,0.20673 -0.68991,0.29328 -1,0.5 -0.19612,0.13075 -0.33333,0.33334 -0.5,0.5 -0.5,0.5 -1,1 -1.5,1.5 -0.16667,0.16667 -0.33333,0.33334 -0.5,0.5 -0.16667,0.16667 -0.39459,0.28919 -0.5,0.5 -0.0745,0.14908 0.0745,0.35093 0,0.5 -0.21082,0.42164 -0.78918,0.57837 -1,1 -0.0745,0.14908 0.0924,0.36133 0,0.5 -0.26149,0.39224 -0.71716,0.62288 -1,1 -0.22361,0.29815 -0.33333,0.66667 -0.5,1 -0.16667,0.33334 -0.33333,0.66667 -0.5,1 -0.16667,0.33334 -0.33333,0.66667 -0.5,1 -0.16667,0.33334 -0.40961,0.63845 -0.5,1 -0.0808,0.32339 0.0808,0.67662 0,1 -0.18078,0.72311 -0.7643,1.2929 -1,2 -0.0527,0.15812 0.0527,0.34189 0,0.5 -0.11785,0.35356 -0.38215,0.64645 -0.5,1 -0.0902,0.27061 0,1.82967 0,2 0,0.83334 0,1.66667 0,2.5 0,0.16667 0,0.33334 0,0.5 0,0.16667 -0.0745,0.35093 0,0.5 0.10541,0.21082 0.36926,0.30389 0.5,0.5 1.10158,0.2518 0.2643,1.0286 0.5,1.5 0.10541,0.21082 0.36926,0.30389 0.5,0.5 0.20672,0.31009 0.29328,0.68992 0.5,1 0.13074,0.19612 0.33333,0.33334 0.5,0.5 0.33333,0.33334 0.66667,0.66667 1,1 0.33333,0.33334 0.62288,0.71716 1,1 0.29814,0.22361 0.65398,0.3616 1,0.5 0.9787,0.39148 2.0213,0.60852 3,1 0.34602,0.13841 0.63845,0.40962 1,0.5 0.32338,0.0809 0.67314,-0.0654 1,0 1.03362,0.20673 1.96638,0.79328 3,1 0.32686,0.0654 0.66667,0 1,0 0.66667,0 1.33333,0 2,0 0.36704,0 2.82569,0.0872 3,0 0.21082,-0.1054 0.28918,-0.39459 0.5,-0.5 0.14907,-0.0745 0.34189,0.0527 0.5,0 0.70711,-0.2357 1.29289,-0.76429 2,-1 0.15811,-0.0527 0.34189,0.0527 0.5,0 0.70711,-0.2357 1.2769,-0.81922 2,-1 0.32338,-0.0808 0.67662,0.0809 1,0 0.36155,-0.0904 0.63845,-0.40961 1,-0.5 0.38023,-0.095 2.08131,0 2.5,0 0.45068,0 2.1853,0.1049 2.5,0 0.90811,-0.3027 0.92792,-0.42792 1.5,-1 0.16667,-0.16666 0.28918,-0.39459 0.5,-0.5 0.14907,-0.0745 0.35093,0.0745 0.5,0 0.42164,-0.21081 0.60777,-0.73851 1,-1 0.31009,-0.20672 0.68991,-0.29327 1,-0.5 0.39223,-0.26148 0.66667,-0.66666 1,-1 0.5,-0.5 1,-1 1.5,-1.5 0.39054,-0.39054 1.21237,-1.06855 1.5,-1.5 0.41345,-0.62017 0.58655,-1.37982 1,-2 0.13074,-0.19611 0.39459,-0.28918 0.5,-0.5 1.16934,-0.2602 0.305,-1.41501 0.5,-2 0.11785,-0.35355 0.40961,-0.63844 0.5,-1 0.0808,-0.32338 0,-0.66666 0,-1 0,-1 0,-2 0,-3 0,-0.51996 0.0983,-2.60669 0,-3 -0.0904,-0.36155 -0.36159,-0.65397 -0.5,-1 -0.19574,-0.48935 -0.30426,-1.01065 -0.5,-1.5 -0.13841,-0.34602 -0.40961,-0.63844 -0.5,-1 -0.0808,-0.32338 0.10541,-0.68377 0,-1 -0.0745,-0.2236 -0.36926,-0.30388 -0.5,-0.5 -0.41345,-0.62017 -0.58655,-1.37982 -1,-2 -0.13074,-0.19611 -0.36926,-0.30388 -0.5,-0.5 -1.10158,-0.25179 -0.2643,-1.02859 -0.5,-1.5 -0.13352,-0.26704 -1.23677,-1.23676 -1.5,-1.5 -0.26323,-0.26323 -1.23296,-1.36647 -1.5,-1.5 -0.14907,-0.0745 -0.35093,0.0745 -0.5,0 -0.21082,-0.1054 -0.27639,-0.42546 -0.5,-0.5 -0.47434,-0.15811 -1.02566,0.15812 -1.5,0 -0.35355,-0.11785 -0.64645,-0.38214 -1,-0.5 -0.15811,-0.0527 -0.34189,0.0527 -0.5,0 -0.70711,-0.2357 -1.29289,-0.76429 -2,-1 -0.15811,-0.0527 -0.34189,0.0527 -0.5,0 -0.35355,-0.11785 -0.64645,-0.38214 -1,-0.5 -0.47434,-0.15811 -1.02566,0.15812 -1.5,0 -0.22361,-0.0745 -0.26887,-0.54622 -0.5,-0.5 -0.73088,0.14618 -1.33333,0.66667 -2,1 z"
       id="path3354-2"
       inkscape:connector-curvature="0"
       inkscape:export-xdpi="90"
       inkscape:export-ydpi="90" />
    <path
       style="fill:none;fill-rule:evenodd;stroke:#000000;stroke-width:1px;stroke-linecap:butt;stroke-linejoin:miter;stroke-opacity:1"
       d="m 354.95627,783.21723 c -0.74413,-0.0516 -0.4142,3.8284 -0.5,4 -0.10541,0.21082 -0.39459,0.28919 -0.5,0.5 -0.0761,0.15217 0,1.27483 0,1.5 0,1 0,2 0,3 0,0.26146 -0.0657,1.86853 0,2 0.61785,1.23571 0.5,-0.17258 0.5,1"
       id="path3356-3"
       inkscape:connector-curvature="0"
       inkscape:export-xdpi="90"
       inkscape:export-ydpi="90" />
    <path
       style="fill:none;fill-rule:evenodd;stroke:#000000;stroke-width:1px;stroke-linecap:butt;stroke-linejoin:miter;stroke-opacity:1"
       d="m 296.95627,726.71723 c 0,1.33334 0,2.66667 0,4 0,0.5 -0.0981,1.00971 0,1.5 0.0731,0.36545 0.43873,0.6324 0.5,1 0.1096,0.6576 0,1.33334 0,2 0,1.5 0,3 0,4.5 0,0.83334 0,1.66667 0,2.5 0,0.5 -0.0707,1.00503 0,1.5 0.0972,0.68028 0.42411,1.31702 0.5,2 0.092,0.82824 -0.092,1.67177 0,2.5 1.05739,4.22956 0.11612,-0.22271 0.5,4 0.1067,1.17368 0.28918,2.3405 0.5,3.5 0.24585,1.3522 0.87557,2.63128 1,4 0.10563,1.16188 -0.10563,2.33813 0,3.5 0.18552,2.04067 0.93985,2.44611 1.5,4.5 1.00788,3.69558 0.16119,2.27307 0.5,6 0.0769,0.84635 0.36029,1.66173 0.5,2.5 1.53472,9.20833 -0.14832,-1.13157 0.5,6 0.0918,1.00964 0.41581,1.98971 0.5,3 0.0831,0.99655 0,2 0,3 0,1.83334 0,3.66667 0,5.5 0,4.83334 0,9.66667 0,14.5 0,1.83334 0,3.66667 0,5.5 0,0.83334 0,1.66667 0,2.5 0,0.66667 -0.18315,1.35899 0,2 0.16509,0.57781 0.76328,0.94767 1,1.5 1.52215,3.55169 0.0434,0.71701 0.5,3 0.10336,0.51682 0.37217,0.98869 0.5,1.5 0.17783,0.71132 -0.22174,1.83478 0,2.5 0.0745,0.22361 0.39459,0.28919 0.5,0.5 0.0745,0.14908 0,0.33334 0,0.5 0,0.35441 -0.0646,2.87073 0,3 0.10541,0.21082 0.42546,0.2764 0.5,0.5 0.0948,0.28444 0,2.02909 0,2.5 0,0.16667 -0.0527,0.34189 0,0.5 0.11785,0.35356 0.38215,0.64645 0.5,1 0.0527,0.15812 0,0.33334 0,0.5 0,0.33334 0,0.66667 0,1 0,0.83334 0,1.66667 0,2.5 0,0.16667 0,0.33334 0,0.5 0,0.16667 -0.0745,0.35093 0,0.5 0.10541,0.21082 0.39459,0.28919 0.5,0.5 0.13562,0.27125 -0.13681,1.86319 0,2 0.37268,0.37268 0.98319,-0.39663 1.5,-0.5 0.49029,-0.0981 1.0068,0.0822 1.5,0 2.89912,-0.48318 0.0107,-0.94325 4,-0.5 0.68298,0.0759 1.31812,0.41477 2,0.5 0.66152,0.0827 1.33333,0 2,0 1,0 2,0 3,0 3.16667,0 6.33333,0 9.5,0 7.33333,0 14.66667,0 22,0 2.66667,0 5.33333,0 8,0 1,0 2.00254,-0.0712 3,0 1.34029,0.0957 2.65927,0.41062 4,0.5 1.16408,0.0776 2.33677,-0.0895 3.5,0 5.64947,0.43458 0.30221,0.56476 7,2 0.9778,0.20953 2,0 3,0 1,0.16667 2.01648,0.25412 3,0.5 1.45005,0.36252 3.41283,1.30161 5,1.5 0.66152,0.0827 1.33848,-0.0827 2,0 0.68188,0.0852 1.32217,0.38703 2,0.5 0.3288,0.0548 0.66667,0 1,0 1.16667,0 2.33333,0 3.5,0 0.83333,0 1.66667,0 2.5,0 0.5,0 1.00971,0.0981 1.5,0 0.36544,-0.0731 0.63456,-0.42691 1,-0.5 0.49029,-0.0981 1.0068,0.0822 1.5,0 0.51988,-0.0866 0.98012,-0.41335 1.5,-0.5 0.82199,-0.13699 1.67801,0.137 2.5,0 0.67783,-0.11297 1.32217,-0.38702 2,-0.5 1.66667,-0.27777 0.41667,0.41667 2.5,0 0.36544,-0.0731 0.64645,-0.38214 1,-0.5 0.15811,-0.0527 0.38215,0.11786 0.5,0 0.11785,-0.11785 0,-0.33333 0,-0.5 0,-0.16666 0.0527,-0.34188 0,-0.5 -0.11785,-0.35355 -0.40961,-0.63844 -0.5,-1 -0.0808,-0.32338 0.0808,-0.67661 0,-1 -0.0904,-0.36155 -0.33333,-0.66666 -0.5,-1 0,-0.5 0.0822,-1.0068 0,-1.5 -0.0867,-0.51987 -0.35521,-0.99323 -0.5,-1.5 -0.18878,-0.66074 -0.33333,-1.33333 -0.5,-2 -0.4975,-1.98998 -1.09777,-3.98885 -1.5,-6 -0.53101,-2.65504 -0.84211,-5.36844 -1.5,-8 -0.33333,-1.16666 -0.66667,-2.33333 -1,-3.5 -0.33333,-0.66666 -0.78582,-1.28607 -1,-2 -0.33746,-1.12485 -0.88249,-6.23615 -1,-7 -1.0584,-6.87958 0.20494,2.45639 -1.5,-5.5 -0.28155,-1.31388 -0.30997,-2.66979 -0.5,-4 -0.14337,-1.0036 -0.33333,-2 -0.5,-3 -0.85322,-5.11933 -0.12759,-1.0954 -1.5,-7.5 -0.35613,-1.66194 -0.55279,-3.36021 -1,-5 -0.66688,-2.44521 -1.27851,-3.06365 -1.5,-5.5 -0.0905,-0.99589 0.0831,-2.00345 0,-3 -0.028,-0.3358 -0.81397,-4.94192 -1,-5.5 -0.2357,-0.7071 -0.78582,-1.28607 -1,-2 -0.29131,-0.97103 -0.28008,-2.01034 -0.5,-3 -0.11433,-0.51449 -0.35521,-0.99323 -0.5,-1.5 -0.18878,-0.66074 -0.31122,-1.33925 -0.5,-2 -0.14479,-0.50676 -0.41335,-0.98012 -0.5,-1.5 -0.1644,-0.98639 0.1644,-2.0136 0,-3 -0.0867,-0.51987 -0.39664,-0.98318 -0.5,-1.5 -0.0654,-0.32686 0,-0.66666 0,-1 0,-1 0,-2 0,-3 0,-0.5 0,-1 0,-1.5 0,-0.33333 0.0654,-0.67314 0,-1 -0.10336,-0.51681 -0.37217,-0.98869 -0.5,-1.5 -0.0404,-0.16169 0,-0.33333 0,-0.5 0,-0.33333 0,-0.66666 0,-1 0,-1.33333 0,-2.66666 0,-4 0,-0.22517 0.0761,-1.34783 0,-1.5 -0.10541,-0.21081 -0.39459,-0.28918 -0.5,-0.5 -0.0372,-0.0743 -0.0366,-1.8902 0,-2 0.11785,-0.35355 0.38215,-0.64644 0.5,-1 0.1771,-0.5313 -0.1771,-1.46869 0,-2 0.11785,-0.35355 0.38215,-0.64644 0.5,-1 0.10541,-0.31622 0,-0.66666 0,-1 0,-0.58764 -0.11299,-2.54805 0,-3 0.12783,-0.51131 0.37217,-0.98869 0.5,-1.5 0.0808,-0.32338 -0.0808,-0.67661 0,-1 0.12783,-0.51131 0.39664,-0.98318 0.5,-1.5 0.0654,-0.32686 -0.0654,-0.67314 0,-1 0.10336,-0.51681 0.39664,-0.98318 0.5,-1.5 0.11278,-0.5639 0,-1.84565 0,-2.5 0,-0.16666 0.14907,-0.42546 0,-0.5 -0.29814,-0.14907 -0.66667,0 -1,0 -0.16667,0 -0.35093,-0.0745 -0.5,0 -0.21082,0.10541 -0.28918,0.3946 -0.5,0.5 -0.14907,0.0745 -0.34189,-0.0527 -0.5,0 -2,0.66667 0.1011,0.47978 -2.5,1 -0.32686,0.0654 -0.67314,-0.0654 -1,0 -0.51681,0.10337 -0.98012,0.41336 -1.5,0.5 -0.4932,0.0822 -1.0068,-0.0822 -1.5,0 -0.51988,0.0867 -0.98012,0.41336 -1.5,0.5 -0.4932,0.0822 -1.00503,-0.0707 -1.5,0 -0.68028,0.0972 -1.31972,0.40282 -2,0.5 -0.49497,0.0707 -1.0068,-0.0822 -1.5,0 -0.51988,0.0867 -0.97825,0.42547 -1.5,0.5 -0.65997,0.0943 -1.3424,-0.10959 -2,0 -0.36761,0.0613 -0.63456,0.42692 -1,0.5 -0.49029,0.0981 -1.00503,-0.0707 -1.5,0 -0.68028,0.0972 -1.31972,0.40282 -2,0.5 -0.49497,0.0707 -1,0 -1.5,0 -0.5,0 -1,0 -1.5,0 -1.33333,0 -2.66667,0 -4,0 -2.33333,0 -4.66667,0 -7,0 -0.83333,0 -1.6731,0.10337 -2.5,0 -0.52298,-0.0654 -0.97825,-0.42546 -1.5,-0.5 -0.65997,-0.0943 -1.33333,0 -2,0 -2.33333,0 -4.66667,0 -7,0 -4.5,0 -9,0 -13.5,0 -1.66667,0 -3.33333,0 -5,0 -0.34526,0 -1.84798,0.076 -2,0 -0.21082,-0.1054 -0.28918,-0.39459 -0.5,-0.5 -0.13147,-0.0657 -1.73854,0 -2,0 -1.5,0 -3,0 -4.5,0 -1.83333,0 -3.66667,0 -5.5,0 -0.57876,0 -2.05361,-0.11159 -2.5,0 -2.29814,0.57454 -0.11344,0.5 -1.5,0.5 -1.33333,0 -2.66667,0 -4,0 -0.26146,0 -1.86853,-0.0657 -2,0 -0.21082,0.10541 -0.28918,0.3946 -0.5,0.5 -0.31543,0.15772 -2.18457,-0.15771 -2.5,0 -1.2357,0.61786 0.17259,0.5 -1,0.5"
       id="path3358-1"
       inkscape:connector-curvature="0"
       inkscape:export-xdpi="90"
       inkscape:export-ydpi="90" />
    <text
       xml:space="preserve"
       style="font-style:normal;font-weight:normal;font-size:13.75px;line-height:125%;font-family:sans-serif;letter-spacing:0px;word-spacing:0px;fill:#000000;fill-opacity:1;stroke:none;stroke-width:1px;stroke-linecap:butt;stroke-linejoin:miter;stroke-opacity:1"
       x="332.94781"
       y="667.95923"
       id="text3336-1"
       sodipodi:linespacing="125%"
       inkscape:export-xdpi="90"
       inkscape:export-ydpi="90"><tspan
         sodipodi:role="line"
         id="tspan3338-1"
         x="332.94781"
         y="667.95923">a</tspan></text>
    <path
       style="fill:none;fill-rule:evenodd;stroke:#000000;stroke-width:1.00791585px;stroke-linecap:butt;stroke-linejoin:miter;stroke-opacity:1"
       d="m 333.59719,646.46231 c -0.17251,2.86907 -1.72453,0.59851 -2.5402,0.99982 -0.0972,0.0479 -1.98353,1.90394 -2.03216,1.99963 -0.0757,0.14905 0.0757,0.35087 0,0.49991 -0.10711,0.21078 -0.33869,0.33328 -0.50804,0.49991 -0.39682,0.39048 -1.23187,1.06835 -1.52412,1.49972 -1.71102,2.52545 -0.004,0.0116 -0.50804,1.49973 -0.23949,0.70698 -0.77659,1.29267 -1.01608,1.99964 -0.0536,0.15809 0.0535,0.34182 0,0.4999 -0.11975,0.3535 -0.4162,0.63834 -0.50804,0.99982 -0.12322,0.48499 0.16065,1.02548 0,1.49973 -0.11975,0.35349 -0.4162,0.63833 -0.50804,0.99982 -0.0999,0.39323 0,2.47958 0,2.99945 0,0.33328 0,0.66655 0,0.99982 0,0.33327 -0.0821,0.67649 0,0.99981 0.0918,0.3615 0.43377,0.63445 0.50804,0.99982 0.0997,0.49021 -0.0997,1.00953 0,1.49973 0.0743,0.36538 0.38829,0.64633 0.50804,0.99981 0.0535,0.1581 0,0.33328 0,0.49991 0.16935,0.49991 0.30915,1.01047 0.50804,1.49973 0.14063,0.34597 0.38829,0.64633 0.50804,0.99982 0.0535,0.15809 -0.0757,0.35086 0,0.49991 0.27306,0.53739 0.74302,0.96234 1.01608,1.49972 0.0757,0.14905 -0.0939,0.36127 0,0.49991 0.26569,0.39217 0.72869,0.62277 1.01608,0.99982 1.24801,0.17826 0.21099,1.06128 0.50804,1.49972 0.26569,0.39217 0.67739,0.66655 1.01608,0.99982 0.16935,0.16664 0.40093,0.28914 0.50804,0.49991 0.0757,0.14905 -0.0757,0.35087 0,0.49991 0.30482,0.59989 1.21929,0.89984 1.52412,1.49973 0.0757,0.14905 -0.0757,0.35086 0,0.4999 0.30482,0.59989 1.21929,0.89984 1.52412,1.49973 0.0757,0.14905 -0.0757,0.35087 0,0.49991 0.1071,0.21078 0.33869,0.33328 0.50804,0.49991 0.16935,0.16664 0.30876,0.36919 0.50804,0.49991 0.31507,0.20669 0.701,0.29322 1.01608,0.49991 0.19927,0.13072 0.30876,0.36919 0.50804,0.4999 0.87565,0.57444 0.76794,0.49991 1.52412,0.49991 0.16935,0 0.35657,-0.0745 0.50804,0 0.21421,0.10539 0.29383,0.39453 0.50804,0.49991 0.0433,0.0213 1.98885,0.0213 2.03216,0 0.2142,-0.10538 0.28083,-0.42538 0.50803,-0.49991 0.23237,-0.0762 1.8061,0.11123 2.03216,0 0.21421,-0.10538 0.30877,-0.36918 0.50804,-0.49991 0.63015,-0.41336 1.4263,-0.55267 2.03216,-0.99981 0.57479,-0.42419 0.92631,-1.10756 1.52412,-1.49973 0.31508,-0.20668 0.74833,-0.23643 1.01608,-0.49991 0.43176,-0.42483 0.64973,-1.01907 1.01608,-1.49972 0.1437,-0.18853 0.3752,-0.30383 0.50804,-0.49991 0.21005,-0.31003 0.28084,-0.70173 0.50804,-0.99982 0.28739,-0.37705 0.7287,-0.62276 1.01608,-0.99982 0.4544,-0.59617 0.56168,-1.40345 1.01608,-1.99963 0.28739,-0.37705 0.75039,-0.60765 1.01608,-0.99982 0.0939,-0.13865 -0.0535,-0.34182 0,-0.49991 0.11975,-0.35348 0.298,-0.68978 0.50804,-0.99982 0.13285,-0.19607 0.3752,-0.30382 0.50804,-0.49991 1.71102,-2.52543 0.004,-0.0116 0.50804,-1.49972 0.11975,-0.35349 0.3883,-0.64632 0.50804,-0.99982 0.0917,-0.27055 0,-1.82933 0,-1.99963 0,-0.99982 0,-1.99964 0,-2.99946 0,-0.49991 0.12322,-1.01473 0,-1.49972 -0.0918,-0.36149 -0.41619,-0.63833 -0.50804,-0.99982 -0.089,-0.35026 0,-2.81845 0,-2.99945 0,-0.16663 0.0536,-0.34182 0,-0.49991 -0.11974,-0.35349 -0.33869,-0.66654 -0.50804,-0.99982 0,-0.49991 0.0997,-1.00951 0,-1.49973 -0.14853,-0.73074 -0.83239,-1.27665 -1.01608,-1.99963 -0.43992,-1.73152 0.64332,-0.30024 -0.50804,-1.99964 -0.13284,-0.19607 -0.4323,-0.27633 -0.50804,-0.4999 -0.1071,-0.31617 0.0821,-0.67649 0,-0.99982 -0.0919,-0.36149 -0.38829,-0.64632 -0.50804,-0.99982 -0.0535,-0.15808 0.0757,-0.35085 0,-0.49991 -0.1071,-0.21077 -0.40093,-0.28912 -0.50804,-0.49991 -0.0757,-0.14904 0.0757,-0.35085 0,-0.49991 -0.1071,-0.21077 -0.40093,-0.28912 -0.50804,-0.4999 -0.0757,-0.14905 0.0757,-0.35086 0,-0.49991 -0.0487,-0.0957 -1.93491,-1.95179 -2.03216,-1.99964 -0.15146,-0.0745 -0.35657,0.0745 -0.50804,0 -0.42842,-0.21077 -0.58766,-0.78903 -1.01608,-0.99982 -0.15146,-0.0745 -0.34738,0.0527 -0.50804,0 -0.35923,-0.11782 -0.65684,-0.38207 -1.01608,-0.4999 -0.16065,-0.0527 -0.34738,0.0527 -0.50804,0 -0.71848,-0.23566 -1.29743,-0.81907 -2.03216,-0.99982 -0.32858,-0.0808 -0.67739,0 -1.01608,0 -0.33869,-0.16663 -0.65684,-0.38207 -1.01608,-0.49991 -0.48196,-0.15808 -1.04215,0.15809 -1.52411,0 -0.22721,-0.0745 -0.26855,-0.49991 -0.50804,-0.49991 -0.37868,0 -0.64872,0.40955 -1.01608,0.49991 -0.76054,0.1871 -2.24396,-0.15828 -3.04824,0 -0.52512,0.10335 -1.00459,0.37211 -1.52412,0.49991 -0.32858,0.0809 -0.69477,-0.10538 -1.01608,0 -0.35924,0.11784 -0.65685,0.38208 -1.01608,0.49991 -0.19769,0.0649 -1.44529,-0.0776 -1.52412,0 -0.11975,0.11784 0,0.33328 0,0.49991"
       id="path3362-6"
       inkscape:connector-curvature="0"
       inkscape:export-xdpi="90"
       inkscape:export-ydpi="90" />
    <text
       xml:space="preserve"
       style="font-style:normal;font-weight:normal;font-size:13.75px;line-height:125%;font-family:sans-serif;letter-spacing:0px;word-spacing:0px;fill:#000000;fill-opacity:1;stroke:none;stroke-width:1px;stroke-linecap:butt;stroke-linejoin:miter;stroke-opacity:1"
       x="451.95627"
       y="707.71722"
       id="text3393-0"
       sodipodi:linespacing="125%"
       inkscape:export-xdpi="90"
       inkscape:export-ydpi="90"><tspan
         sodipodi:role="line"
         id="tspan3395-3"
         x="451.95627"
         y="707.71722">b [shape=box] {</tspan><tspan
         sodipodi:role="line"
         x="451.95627"
         y="724.90472"
         id="tspan3399-8">  &lt;c d&gt;</tspan><tspan
         sodipodi:role="line"
         x="451.95627"
         y="742.09222"
         id="tspan3401-6">}</tspan><tspan
         sodipodi:role="line"
         x="451.95627"
         y="759.27972"
         id="tspan3403-9">&lt;a b/c&gt;</tspan></text>
    <path
       style="fill:none;fill-rule:evenodd;stroke:#000000;stroke-width:1px;stroke-linecap:butt;stroke-linejoin:miter;stroke-opacity:1"
       d="m 345,683.8622 c 0.27246,1.19522 -0.24515,3.27426 0,4.5 0.0731,0.36545 0.42691,0.63456 0.5,1 0.0981,0.4903 -0.0822,1.00681 0,1.5 0.0867,0.51988 0.39664,0.98319 0.5,1.5 0.0654,0.32686 -0.0654,0.67314 0,1 1.41023,4.2307 -0.009,-0.55409 0.5,2.5 0.46568,2.79411 0.26031,1.15079 1,3 0.19574,0.48935 0.33333,1 0.5,1.5 0.16667,0.5 0.39664,0.98319 0.5,1.5 0.0654,0.32686 -0.0654,0.67314 0,1 0.10336,0.51682 0.30426,1.01065 0.5,1.5 0.13841,0.34603 0.42691,0.63456 0.5,1 0,3.81432 -0.22361,-0.39442 0.5,2.5 0.16169,0.64677 -0.16169,1.35324 0,2 0.0904,0.36156 0.42691,0.63456 0.5,1 0.0981,0.4903 -0.0981,1.00971 0,1.5 0.0731,0.36545 0.40961,0.63845 0.5,1 0.0808,0.32339 -0.0654,0.67314 0,1 0.10336,0.51682 0.39664,0.98319 0.5,1.5 0.13074,0.65373 -0.13074,1.34628 0,2 0.60541,3.02705 0.5,0.20717 0.5,2.5 0,0.42433 -0.0919,2.72437 0,3 0.0745,0.22361 0.42546,0.2764 0.5,0.5 0.21082,0.63246 -0.21082,1.36755 0,2 0.0745,0.22361 0.44283,0.27134 0.5,0.5 0.12127,0.48508 0,1 0,1.5 0,0.16667 -0.0527,0.34189 0,0.5 0.11785,0.35356 0.38215,0.64645 0.5,1 0.11322,0.33965 0,2.85507 0,3.5 0,0.33334 -0.10541,0.68378 0,1 0.0745,0.22361 0.39459,0.28919 0.5,0.5 0.0797,0.15934 0,2.05314 0,2.5 0,1.83334 0,3.66667 0,5.5 0,4.66667 0,9.33334 0,14"
       id="path3363"
       inkscape:connector-curvature="0" />
  </g>
</svg>
