<?xml version="1.0" encoding="UTF-8" standalone="no"?>
<!-- Created with Inkscape (http://www.inkscape.org/) -->

<svg
   xmlns:dc="http://purl.org/dc/elements/1.1/"
   xmlns:cc="http://creativecommons.org/ns#"
   xmlns:rdf="http://www.w3.org/1999/02/22-rdf-syntax-ns#"
   xmlns:svg="http://www.w3.org/2000/svg"
   xmlns="http://www.w3.org/2000/svg"
   xmlns:sodipodi="http://sodipodi.sourceforge.net/DTD/sodipodi-0.dtd"
   xmlns:inkscape="http://www.inkscape.org/namespaces/inkscape"
   width="210mm"
   height="297mm"
   viewBox="0 0 744.09448819 1052.3622047"
   id="svg2"
   version="1.1"
   inkscape:version="0.91 r13725"
   sodipodi:docname="hello_world.svg">
  <defs
     id="defs4" />
  <sodipodi:namedview
     id="base"
     pagecolor="#ffffff"
     bordercolor="#666666"
     borderopacity="1.0"
     inkscape:pageopacity="0.0"
     inkscape:pageshadow="2"
     inkscape:zoom="2"
     inkscape:cx="380.71429"
     inkscape:cy="520"
     inkscape:document-units="px"
     inkscape:current-layer="layer1"
     showgrid="false"
     inkscape:window-width="3840"
     inkscape:window-height="2076"
     inkscape:window-x="0"
     inkscape:window-y="53"
     inkscape:window-maximized="1" />
  <metadata
     id="metadata7">
    <rdf:RDF>
      <cc:Work
         rdf:about="">
        <dc:format>image/svg+xml</dc:format>
        <dc:type
           rdf:resource="http://purl.org/dc/dcmitype/StillImage" />
        <dc:title />
      </cc:Work>
    </rdf:RDF>
  </metadata>
  <g
     inkscape:label="Layer 1"
     inkscape:groupmode="layer"
     id="layer1">
    <rect
       style="fill:#ffffff;stroke:none;stroke-width:0.90600002;stroke-miterlimit:4;stroke-dasharray:none"
       id="rect4277"
       width="275.5"
       height="191.5"
       x="216"
       y="441.86221" />
    <text
       xml:space="preserve"
       style="font-style:normal;font-weight:normal;font-size:13.75px;line-height:125%;font-family:sans-serif;letter-spacing:0px;word-spacing:0px;fill:#000000;fill-opacity:1;stroke:none;stroke-width:1px;stroke-linecap:butt;stroke-linejoin:miter;stroke-opacity:1"
       x="263.5"
       y="497.36221"
       id="text3336"
       sodipodi:linespacing="125%"><tspan
         sodipodi:role="line"
         id="tspan3338"
         x="263.5"
         y="497.36221">hello</tspan></text>
    <text
       xml:space="preserve"
       style="font-style:normal;font-weight:normal;font-size:13.75px;line-height:125%;font-family:sans-serif;letter-spacing:0px;word-spacing:0px;fill:#000000;fill-opacity:1;stroke:none;stroke-width:1px;stroke-linecap:butt;stroke-linejoin:miter;stroke-opacity:1"
       x="265.5"
       y="588.36218"
       id="text3340"
       sodipodi:linespacing="125%"><tspan
         sodipodi:role="line"
         id="tspan3342"
         x="265.5"
         y="588.36218">world</tspan></text>
    <path
       style="fill:none;fill-rule:evenodd;stroke:#000000;stroke-width:1px;stroke-linecap:butt;stroke-linejoin:miter;stroke-opacity:1"
       d="m 278.5,464.8622 c -5,0 -10,0 -15,0 -1,0 -2,0 -3,0 -0.33333,0 -0.67314,-0.0654 -1,0 -0.51681,0.10337 -0.98012,0.41336 -1.5,0.5 -0.4932,0.0822 -1.00971,-0.0981 -1.5,0 -0.73088,0.14618 -1.2769,0.81923 -2,1 -0.32338,0.0809 -0.67662,-0.0808 -1,0 -1.45012,0.36253 -0.58513,0.39009 -1.5,1 -0.62017,0.41345 -1.37983,0.58656 -2,1 -0.19612,0.13075 -0.30388,0.36926 -0.5,0.5 -0.31009,0.20673 -0.68991,0.29328 -1,0.5 -0.19612,0.13075 -0.28918,0.3946 -0.5,0.5 -0.14907,0.0745 -0.36132,-0.0924 -0.5,0 -0.73574,0.4905 -1.26426,1.50951 -2,2 -0.31009,0.20673 -0.68991,0.29328 -1,0.5 -0.43145,0.28764 -1.10946,1.10946 -1.5,1.5 -0.16667,0.16667 -0.33333,0.33334 -0.5,0.5 -0.16667,0.16667 -0.39459,0.28919 -0.5,0.5 -0.0745,0.14908 0.0745,0.35093 0,0.5 -0.10541,0.21082 -0.39459,0.28919 -0.5,0.5 -0.0745,0.14908 0.0745,0.35093 0,0.5 -0.10541,0.21082 -0.39459,0.28919 -0.5,0.5 -0.076,0.15202 0,1.65474 0,2 0,0.83334 0,1.66667 0,2.5 0,0.33334 -0.10541,0.68378 0,1 0.11785,0.35356 0.38215,0.64645 0.5,1 0.10541,0.31623 -0.10541,0.68378 0,1 0.11785,0.35356 0.38215,0.64645 0.5,1 0.1771,0.53131 -0.1771,1.4687 0,2 0.0745,0.22361 0.39459,0.28919 0.5,0.5 0.2,0.4 -0.2,1.1 0,1.5 1.14415,2.28831 -0.20724,-2.1217 1,1.5 0.0527,0.15812 0,0.33334 0,0.5 0.16667,0.16667 0.39459,0.28919 0.5,0.5 0.0745,0.14908 -0.0745,0.35093 0,0.5 0.10541,0.21082 0.39459,0.28919 0.5,0.5 0.0745,0.14908 -0.0745,0.35093 0,0.5 0.21082,0.42164 0.78918,0.57837 1,1 0.0745,0.14908 -0.0745,0.35093 0,0.5 0.21082,0.42164 0.78918,0.57837 1,1 0.0745,0.14908 -0.0745,0.35093 0,0.5 0.10541,0.21082 0.39459,0.28919 0.5,0.5 0.0745,0.14908 -0.0745,0.35093 0,0.5 0.21082,0.42164 0.78918,0.57837 1,1 0.0745,0.14908 -0.0745,0.35093 0,0.5 0.21082,0.42164 0.78918,0.57837 1,1 0.0745,0.14908 -0.0745,0.35093 0,0.5 0.21082,0.42164 0.78918,0.57837 1,1 0.0745,0.14908 -0.0745,0.35093 0,0.5 0.10541,0.21082 0.36926,0.30389 0.5,0.5 0.20672,0.31009 0.23648,0.73648 0.5,1 0.26352,0.26353 0.73648,0.23648 1,0.5 0.11785,0.11786 -0.0745,0.35093 0,0.5 0.10541,0.21082 0.33333,0.33334 0.5,0.5 0.16667,0.16667 0.33333,0.33334 0.5,0.5 0.26323,0.26324 1.23296,1.36648 1.5,1.5 0.14907,0.0745 0.35093,-0.0745 0.5,0 0.6,0.3 0.9,1.2 1.5,1.5 0.14907,0.0745 0.35093,-0.0745 0.5,0 0.21082,0.10541 0.27639,0.42547 0.5,0.5 0.31623,0.10541 0.68377,-0.1054 1,0 0.22361,0.0745 0.28918,0.3946 0.5,0.5 0.14907,0.0745 0.34189,-0.0527 0.5,0 0.35355,0.11786 0.63845,0.40962 1,0.5 0.48507,0.12127 1.02566,-0.15811 1.5,0 0.35355,0.11786 0.63845,0.40962 1,0.5 0.32338,0.0809 0.68377,-0.1054 1,0 0.22361,0.0745 0.27639,0.42547 0.5,0.5 0.63246,0.21082 1.35324,-0.16169 2,0 0.36155,0.0904 0.63845,0.40962 1,0.5 0.86812,0.21704 2.13188,-0.21703 3,0 0.36155,0.0904 0.63845,0.40962 1,0.5 0.48507,0.12127 1,0 1.5,0 1,0 2,0 3,0 1,0 2,0 3,0 0.11882,0 1.88793,0.056 2,0 0.21082,-0.1054 0.28918,-0.39459 0.5,-0.5 0.4,-0.2 1.1,0.2 1.5,0 0.21082,-0.1054 0.28918,-0.39459 0.5,-0.5 0.4,-0.2 1.1,0.2 1.5,0 0.21082,-0.1054 0.27639,-0.42546 0.5,-0.5 0.53131,-0.1771 1.46869,0.17711 2,0 0.35355,-0.11785 0.63845,-0.40961 1,-0.5 0.32338,-0.0808 0.68377,0.10541 1,0 0.22361,-0.0745 0.27639,-0.42546 0.5,-0.5 0.47434,-0.15811 1.02566,0.15812 1.5,0 0.35355,-0.11785 0.64645,-0.38214 1,-0.5 0.34392,-0.11463 1.20499,0.14751 1.5,0 0.21082,-0.1054 0.28918,-0.39459 0.5,-0.5 0.4,-0.2 1.1,0.2 1.5,0 0.21082,-0.1054 0.28918,-0.39459 0.5,-0.5 0.4,-0.2 1.1,0.2 1.5,0 0.21082,-0.1054 0.27639,-0.42546 0.5,-0.5 0.22869,-0.0762 1.77751,0.11125 2,0 0.21082,-0.1054 0.28918,-0.39459 0.5,-0.5 0.29814,-0.14907 0.70186,0.14908 1,0 0.21082,-0.1054 0.28918,-0.39459 0.5,-0.5 0.14907,-0.0745 0.35093,0.0745 0.5,0 0.21082,-0.1054 0.28918,-0.39459 0.5,-0.5 0.29814,-0.14907 0.70186,0.14908 1,0 0.13276,-0.0664 1.43362,-1.36724 1.5,-1.5 0.0745,-0.14907 -0.0745,-0.35092 0,-0.5 0.10541,-0.21081 0.39459,-0.28918 0.5,-0.5 0.0745,-0.14907 -0.0745,-0.35092 0,-0.5 0.10541,-0.21081 0.39459,-0.28918 0.5,-0.5 0.0745,-0.14907 -0.0745,-0.35092 0,-0.5 0.10541,-0.21081 0.39459,-0.28918 0.5,-0.5 0.0745,-0.14907 -0.0745,-0.35092 0,-0.5 0.10541,-0.21081 0.39459,-0.28918 0.5,-0.5 0.0745,-0.14907 -0.0745,-0.35092 0,-0.5 0.10541,-0.21081 0.42546,-0.27639 0.5,-0.5 0.15413,-0.46238 -0.16471,-2.67058 0,-3 0.10541,-0.21081 0.42546,-0.27639 0.5,-0.5 0.0188,-0.0565 0.0451,-2.3646 0,-2.5 -0.11785,-0.35355 -0.40961,-0.63844 -0.5,-1 -0.0808,-0.32338 0,-0.66666 0,-1 0,-0.85226 0.0527,-0.89459 -0.5,-2 -0.10541,-0.21081 -0.42546,-0.27639 -0.5,-0.5 -0.10541,-0.31622 0.0808,-0.67661 0,-1 -0.2018,-0.80721 -0.49174,-0.99174 -1,-1.5 -0.16667,-0.16666 -0.39459,-0.28918 -0.5,-0.5 -0.2357,-0.4714 -0.2643,-1.02859 -0.5,-1.5 -0.10541,-0.21081 -0.33333,-0.33333 -0.5,-0.5 -0.33333,-0.33333 -0.66667,-0.66666 -1,-1 -0.16667,-0.16666 -0.36926,-0.30388 -0.5,-0.5 -0.20672,-0.31008 -0.29328,-0.68991 -0.5,-1 -0.28763,-0.43145 -1.10946,-1.10945 -1.5,-1.5 -0.16667,-0.16666 -0.33333,-0.33333 -0.5,-0.5 -0.16667,-0.16666 -0.28918,-0.39459 -0.5,-0.5 -0.14907,-0.0745 -0.35093,0.0745 -0.5,0 -0.21082,-0.1054 -0.28918,-0.39459 -0.5,-0.5 -0.14907,-0.0745 -0.35093,0.0745 -0.5,0 -0.21082,-0.1054 -0.28918,-0.39459 -0.5,-0.5 -0.14907,-0.0745 -0.35093,0.0745 -0.5,0 -0.42164,-0.21081 -0.57836,-0.78918 -1,-1 -0.4714,-0.2357 -1.0286,-0.26429 -1.5,-0.5 -0.21082,-0.1054 -0.28918,-0.39459 -0.5,-0.5 -0.14907,-0.0745 -0.35093,0.0745 -0.5,0 -0.21082,-0.1054 -0.30388,-0.36925 -0.5,-0.5 -0.31009,-0.20672 -0.68991,-0.29327 -1,-0.5 -0.19612,-0.13074 -0.28918,-0.39459 -0.5,-0.5 -0.29814,-0.14907 -0.70186,0.14908 -1,0 -0.21082,-0.1054 -0.30388,-0.36925 -0.5,-0.5 -0.31009,-0.20672 -0.68991,-0.29327 -1,-0.5 -0.19612,-0.13074 -0.28918,-0.39459 -0.5,-0.5 -0.14907,-0.0745 -0.35093,0.0745 -0.5,0 -0.21082,-0.1054 -0.30388,-0.36925 -0.5,-0.5 -0.31009,-0.20672 -0.66667,-0.33333 -1,-0.5 -0.33333,-0.16666 -0.64645,-0.38214 -1,-0.5 -0.15811,-0.0527 -0.33333,0 -0.5,0 -0.16667,-0.16666 -0.28918,-0.39459 -0.5,-0.5 -0.14907,-0.0745 -0.35093,0.0745 -0.5,0 -0.21082,-0.1054 -0.30388,-0.36925 -0.5,-0.5 -0.31009,-0.20672 -0.70186,-0.27639 -1,-0.5 -0.37712,-0.28284 -0.60777,-0.73851 -1,-1 -0.13868,-0.0924 -0.35093,0.0745 -0.5,0 -0.17122,-0.0856 -1.33889,-1.30667 -1.5,-1.5 -0.6832,-0.81983 -1.14625,-1.85968 -2,-2.5 -0.54975,-0.41231 -1.34808,-0.28269 -2,-0.5 -0.35355,-0.11785 -0.64645,-0.38214 -1,-0.5 -0.15811,-0.0527 -0.35093,0.0745 -0.5,0 -0.21082,-0.1054 -0.33333,-0.33333 -0.5,-0.5"
       id="path3344"
       inkscape:connector-curvature="0" />
    <path
       style="fill:none;fill-rule:evenodd;stroke:#000000;stroke-width:1px;stroke-linecap:butt;stroke-linejoin:miter;stroke-opacity:1"
       d="m 281.5,557.8622 c -0.83333,0.16667 -1.6587,0.37982 -2.5,0.5 -0.75006,0.10716 -2.19363,0 -3,0 -1.83333,0 -3.66667,0 -5.5,0 -0.51996,0 -2.60669,-0.0983 -3,0 -0.36155,0.0904 -0.63845,0.40962 -1,0.5 -0.32338,0.0808 -0.67662,-0.0808 -1,0 -0.36155,0.0904 -0.65398,0.3616 -1,0.5 -0.48935,0.19574 -1.01065,0.30426 -1.5,0.5 -0.69205,0.27682 -1.36086,0.61652 -2,1 -0.51529,0.30918 -0.94205,0.77683 -1.5,1 -0.30949,0.1238 -0.68377,-0.1054 -1,0 -0.22361,0.0745 -0.28918,0.3946 -0.5,0.5 -0.4714,0.23571 -1.0286,0.2643 -1.5,0.5 -2.2883,1.14416 2.12171,-0.20723 -1.5,1 -0.15811,0.0527 -0.35093,-0.0745 -0.5,0 -0.6,0.3 -0.9,1.2 -1.5,1.5 -0.14907,0.0745 -0.38215,-0.11785 -0.5,0 -0.11785,0.11786 0.0745,0.35093 0,0.5 -0.21082,0.42164 -0.78918,0.57837 -1,1 -0.0745,0.14908 0.0527,0.34189 0,0.5 -1.20724,3.62171 0.14415,-0.7883 -1,1.5 -0.0745,0.14908 0.0527,0.34189 0,0.5 -0.11785,0.35356 -0.29328,0.68992 -0.5,1 -0.13074,0.19612 -0.42546,0.2764 -0.5,0.5 -0.10541,0.31623 0.0808,0.67662 0,1 -0.29205,1.1682 -1.0958,1.28739 -1.5,2.5 -0.0527,0.15812 0.0527,0.34189 0,0.5 -0.11785,0.35356 -0.38215,0.64645 -0.5,1 -0.10541,0.31623 0.10541,0.68378 0,1 -0.11785,0.35356 -0.38215,0.64645 -0.5,1 -0.0527,0.15812 0.0527,0.34189 0,0.5 -0.11785,0.35356 -0.38215,0.64645 -0.5,1 -0.15811,0.47435 0.12127,1.01493 0,1.5 -0.0904,0.36156 -0.40961,0.63845 -0.5,1 -0.0503,0.20133 -0.044,2.91203 0,3 0.10541,0.21082 0.42546,0.2764 0.5,0.5 0.0845,0.25342 0,3.09126 0,3.5 0,0.16667 -0.0745,0.35093 0,0.5 0.10541,0.21082 0.39459,0.28919 0.5,0.5 0.0745,0.14908 -0.0527,0.34189 0,0.5 0.2357,0.70711 0.7643,1.2929 1,2 0.0527,0.15812 -0.0745,0.35093 0,0.5 0.10541,0.21082 0.36926,0.30389 0.5,0.5 1.10158,0.2518 0.2643,1.0286 0.5,1.5 0.10541,0.21082 0.36926,0.30389 0.5,0.5 0.20672,0.31009 0.38215,0.64645 0.5,1 0.0527,0.15812 -0.0925,0.36133 0,0.5 0.33333,0.33334 0.66667,0.66667 1,1 0,0.16667 -0.0745,0.35093 0,0.5 0.21082,0.42164 0.78918,0.57837 1,1 0.0745,0.14908 -0.0925,0.36133 0,0.5 0.49049,0.73574 1.50951,1.26427 2,2 0.20672,0.31009 0.23648,0.73648 0.5,1 0.26352,0.26353 0.68991,0.29328 1,0.5 0.39223,0.26149 0.60777,0.73852 1,1 2.5259,1.68394 0.0116,0.004 1.5,0.5 0.35355,0.11786 0.66667,0.33334 1,0.5 0.66667,0.33334 1.37983,0.58656 2,1 0.19612,0.13075 0.27134,0.44284 0.5,0.5 0.48507,0.12127 1.00971,-0.0981 1.5,0 0.36544,0.0731 0.64645,0.38215 1,0.5 0.47434,0.15812 1.00971,-0.0981 1.5,0 0.51681,0.10337 0.98012,0.41336 1.5,0.5 0.98639,0.1644 2.01942,-0.19611 3,0 0.36544,0.0731 0.63456,0.42692 1,0.5 0.81715,0.16343 1.66667,0 2.5,0 1.66667,0 3.33333,0 5,0 1.66667,0 3.33333,0 5,0 0.5,0 1,0 1.5,0 0.33333,0 0.67314,-0.0654 1,0 0.51681,0.10337 0.98319,0.39664 1.5,0.5 0.32686,0.0654 0.66667,0 1,0 1,0 2,0 3,0 0.5,0 1,0 1.5,0 0.5,0 1.00971,0.0981 1.5,0 0.36544,-0.0731 0.63456,-0.42691 1,-0.5 0.49029,-0.0981 1,0 1.5,0 0.83333,0 1.66667,0 2.5,0 0.33333,0 0.67662,0.0808 1,0 0.36155,-0.0904 0.63845,-0.40961 1,-0.5 0.48507,-0.12126 1.02566,0.15812 1.5,0 0.35355,-0.11785 0.64645,-0.38214 1,-0.5 0.15811,-0.0527 0.38215,0.11786 0.5,0 0.11785,-0.11785 -0.0527,-0.34188 0,-0.5 1.20724,-3.6217 -0.14415,0.78831 1,-1.5 0.0745,-0.14907 -0.0745,-0.35092 0,-0.5 0.10541,-0.21081 0.33333,-0.33333 0.5,-0.5 0.16667,-0.16666 0.28918,-0.39459 0.5,-0.5 0.14907,-0.0745 0.35093,0.0745 0.5,0 0.42164,-0.21081 0.57836,-0.78918 1,-1 0.14907,-0.0745 0.35093,0.0745 0.5,0 0.21082,-0.1054 0.33333,-0.33333 0.5,-0.5 0.16667,-0.16666 0.36926,-0.30388 0.5,-0.5 0.20672,-0.31008 0.29328,-0.68991 0.5,-1 0.13074,-0.19611 0.33333,-0.33333 0.5,-0.5 0.57208,-0.57207 0.6973,-0.59188 1,-1.5 0.11464,-0.34391 -0.14751,-1.20499 0,-1.5 0.10541,-0.21081 0.39459,-0.28918 0.5,-0.5 0.0745,-0.14907 -0.0745,-0.35092 0,-0.5 0.10541,-0.21081 0.39459,-0.28918 0.5,-0.5 0.0745,-0.14907 -0.0527,-0.34188 0,-0.5 0.11785,-0.35355 0.40961,-0.63844 0.5,-1 0.0808,-0.32338 -0.10541,-0.68377 0,-1 0.0745,-0.2236 0.39459,-0.28918 0.5,-0.5 0.0745,-0.14907 0,-0.33333 0,-0.5 0.16667,-0.33333 0.29328,-0.68991 0.5,-1 0.13074,-0.19611 0.36926,-0.30388 0.5,-0.5 0.20672,-0.31008 0.29328,-0.68991 0.5,-1 0.26149,-0.39223 0.78918,-0.57836 1,-1 0.0745,-0.14907 0,-0.33333 0,-0.5 0.16667,-0.33333 0.29328,-0.68991 0.5,-1 0.13074,-0.19611 0.42546,-0.27639 0.5,-0.5 0.11338,-0.34015 -0.13256,-2.23488 0,-2.5 0.10541,-0.21081 0.39459,-0.28918 0.5,-0.5 0.0341,-0.0683 0.0341,-2.93171 0,-3 -0.10541,-0.21081 -0.39459,-0.28918 -0.5,-0.5 -0.2,-0.4 0.2,-1.1 0,-1.5 -0.10541,-0.21081 -0.39459,-0.28918 -0.5,-0.5 -0.14907,-0.29814 0.14907,-0.70185 0,-1 -0.10541,-0.21081 -0.42546,-0.27639 -0.5,-0.5 -0.10541,-0.31622 0.10541,-0.68377 0,-1 -0.14907,-0.44721 -0.78918,-0.57836 -1,-1 -0.0745,-0.14907 0.0745,-0.35092 0,-0.5 -0.10541,-0.21081 -0.33333,-0.33333 -0.5,-0.5 -0.16667,-0.16666 -0.33333,-0.33333 -0.5,-0.5 -0.5,-0.5 -1,-1 -1.5,-1.5 -0.33333,-0.33333 -0.60777,-0.73851 -1,-1 -0.31009,-0.20672 -0.68991,-0.29327 -1,-0.5 -0.19612,-0.13074 -0.30388,-0.36925 -0.5,-0.5 -0.31009,-0.20672 -0.68991,-0.29327 -1,-0.5 -0.19612,-0.13074 -0.28918,-0.39459 -0.5,-0.5 -0.29814,-0.14907 -1,0.33334 -1,0 0,-0.16666 0.61785,0.11786 0.5,0 -0.26352,-0.26352 -0.68043,-0.30825 -1,-0.5 -0.71316,-0.42789 -1.6428,-1.21426 -2.5,-1.5 -0.15811,-0.0527 -0.34189,0.0527 -0.5,0 -0.35355,-0.11785 -0.64645,-0.38214 -1,-0.5 -0.15811,-0.0527 -0.35093,0.0745 -0.5,0 -0.42164,-0.21081 -0.57836,-0.78918 -1,-1 -0.14907,-0.0745 -0.35093,0.0745 -0.5,0 -0.21082,-0.1054 -0.28918,-0.39459 -0.5,-0.5 -0.14907,-0.0745 -0.34189,0.0527 -0.5,0 -1.05,-0.35 -1.95,-1.15 -3,-1.5 -0.31623,-0.1054 -0.68377,0.10541 -1,0 -0.70711,-0.2357 -1.29289,-0.76429 -2,-1 -0.47434,-0.15811 -1.02566,0.15812 -1.5,0 -0.22361,-0.0745 -0.28918,-0.39459 -0.5,-0.5 -0.29814,-0.14907 -0.70186,0.14908 -1,0 -0.21082,-0.1054 -0.30388,-0.36925 -0.5,-0.5 -0.31009,-0.20672 -0.68991,-0.29327 -1,-0.5 -1.14415,-0.76276 0.31265,-0.39578 -1.5,-1 -0.15811,-0.0527 -0.34189,0.0527 -0.5,0 -0.35355,-0.11785 -0.64645,-0.38214 -1,-0.5 -0.34392,-0.11463 -1.20499,0.14751 -1.5,0 -0.37127,-0.18563 -1.17863,-1.43572 -1.5,-1.5 -0.65372,-0.13074 -1.33333,0 -2,0 z"
       id="path3350"
       inkscape:connector-curvature="0" />
    <path
       style="fill:none;fill-rule:evenodd;stroke:#000000;stroke-width:1px;stroke-linecap:butt;stroke-linejoin:miter;stroke-opacity:1"
       d="m 276.5,510.8622 c 0,10.66667 0,21.33334 0,32 0,1.83334 0,3.66667 0,5.5 0,0.47092 -0.0948,2.21557 0,2.5 0.0745,0.22361 0.39459,0.28919 0.5,0.5 0.0657,0.13148 0,1.73854 0,2 0,1.5 0,3 0,4.5"
       id="path3352"
       inkscape:connector-curvature="0" />
    <text
       xml:space="preserve"
       style="font-style:normal;font-weight:normal;font-size:13.75px;line-height:125%;font-family:sans-serif;letter-spacing:0px;word-spacing:0px;fill:#000000;fill-opacity:1;stroke:none;stroke-width:1px;stroke-linecap:butt;stroke-linejoin:miter;stroke-opacity:1"
       x="375"
       y="520.36218"
       id="text3354"
       sodipodi:linespacing="125%"><tspan
         sodipodi:role="line"
         id="tspan3356"
         x="375"
         y="520.36218">&lt;hello world&gt;</tspan></text>
  </g>
</svg>
