<?xml version="1.0" encoding="UTF-8" standalone="no"?>
<!-- Created with Inkscape (http://www.inkscape.org/) -->

<svg
   xmlns:dc="http://purl.org/dc/elements/1.1/"
   xmlns:cc="http://creativecommons.org/ns#"
   xmlns:rdf="http://www.w3.org/1999/02/22-rdf-syntax-ns#"
   xmlns:svg="http://www.w3.org/2000/svg"
   xmlns="http://www.w3.org/2000/svg"
   xmlns:sodipodi="http://sodipodi.sourceforge.net/DTD/sodipodi-0.dtd"
   xmlns:inkscape="http://www.inkscape.org/namespaces/inkscape"
   width="210mm"
   height="297mm"
   viewBox="0 0 744.09448819 1052.3622047"
   id="svg2"
   version="1.1"
   inkscape:version="0.91 r13725"
   sodipodi:docname="implement_netlist_with_edge_container.svg">
  <defs
     id="defs4" />
  <sodipodi:namedview
     id="base"
     pagecolor="#ffffff"
     bordercolor="#666666"
     borderopacity="1.0"
     inkscape:pageopacity="0.0"
     inkscape:pageshadow="2"
     inkscape:zoom="2"
     inkscape:cx="380.71429"
     inkscape:cy="520"
     inkscape:document-units="px"
     inkscape:current-layer="layer1"
     showgrid="false"
     inkscape:window-width="3840"
     inkscape:window-height="2081"
     inkscape:window-x="0"
     inkscape:window-y="24"
     inkscape:window-maximized="1" />
  <metadata
     id="metadata7">
    <rdf:RDF>
      <cc:Work
         rdf:about="">
        <dc:format>image/svg+xml</dc:format>
        <dc:type
           rdf:resource="http://purl.org/dc/dcmitype/StillImage" />
        <dc:title></dc:title>
      </cc:Work>
    </rdf:RDF>
  </metadata>
  <g
     inkscape:label="Layer 1"
     inkscape:groupmode="layer"
     id="layer1">
    <text
       xml:space="preserve"
       style="font-style:normal;font-weight:normal;font-size:13.75px;line-height:125%;font-family:sans-serif;letter-spacing:0px;word-spacing:0px;fill:#000000;fill-opacity:1;stroke:none;stroke-width:1px;stroke-linecap:butt;stroke-linejoin:miter;stroke-opacity:1"
       x="228"
       y="453.36221"
       id="text3336"
       sodipodi:linespacing="125%"><tspan
         sodipodi:role="line"
         id="tspan3338"
         x="228"
         y="453.36221">a</tspan></text>
    <text
       xml:space="preserve"
       style="font-style:normal;font-weight:normal;font-size:13.75px;line-height:125%;font-family:sans-serif;letter-spacing:0px;word-spacing:0px;fill:#000000;fill-opacity:1;stroke:none;stroke-width:1px;stroke-linecap:butt;stroke-linejoin:miter;stroke-opacity:1"
       x="228"
       y="519.36218"
       id="text3340"
       sodipodi:linespacing="125%"><tspan
         sodipodi:role="line"
         id="tspan3342"
         x="228"
         y="519.36218">b</tspan></text>
    <text
       xml:space="preserve"
       style="font-style:normal;font-weight:normal;font-size:13.75px;line-height:125%;font-family:sans-serif;letter-spacing:0px;word-spacing:0px;fill:#000000;fill-opacity:1;stroke:none;stroke-width:1px;stroke-linecap:butt;stroke-linejoin:miter;stroke-opacity:1"
       x="231.5"
       y="584.86218"
       id="text3344"
       sodipodi:linespacing="125%"><tspan
         sodipodi:role="line"
         id="tspan3346"
         x="231.5"
         y="584.86218">c</tspan></text>
    <path
       style="fill:none;fill-rule:evenodd;stroke:#000000;stroke-width:1px;stroke-linecap:butt;stroke-linejoin:miter;stroke-opacity:1"
       d="m 232.5,433.3622 c -1.87849,-1.17057 -1.57805,1.19269 -2.5,1.5 -0.31623,0.10541 -0.68377,-0.1054 -1,0 -0.22361,0.0745 -0.33333,0.33334 -0.5,0.5 -0.33333,0.16667 -0.63845,0.40962 -1,0.5 -0.32338,0.0809 -0.67662,-0.0808 -1,0 -1.45012,0.36253 -0.58513,0.39009 -1.5,1 -0.31009,0.20673 -0.68991,0.29328 -1,0.5 -0.19612,0.13075 -0.28918,0.3946 -0.5,0.5 -0.14907,0.0745 -0.35093,-0.0745 -0.5,0 -0.44317,0.22159 -1.04484,1.19657 -1.5,1.5 -0.31009,0.20673 -0.68991,0.29328 -1,0.5 -0.20541,0.13695 -1.36306,1.29459 -1.5,1.5 -0.20672,0.31009 -0.29328,0.68992 -0.5,1 -0.13074,0.19612 -0.39459,0.28919 -0.5,0.5 -0.0745,0.14908 0.0745,0.35093 0,0.5 -0.10541,0.21082 -0.39459,0.28919 -0.5,0.5 -0.0745,0.14908 0.0745,0.35093 0,0.5 -1.14415,2.28831 0.20724,-2.1217 -1,1.5 -0.0527,0.15812 0.0745,0.35093 0,0.5 -0.10541,0.21082 -0.39459,0.28919 -0.5,0.5 -0.0745,0.14908 0.0745,0.35093 0,0.5 -0.10541,0.21082 -0.39459,0.28919 -0.5,0.5 -0.0761,0.15217 0,1.27483 0,1.5 0,0.56148 -0.11915,3.14255 0,3.5 0.11785,0.35356 0.38215,0.64645 0.5,1 0.15811,0.47435 -0.15811,1.02566 0,1.5 0.0745,0.22361 0.36926,0.30389 0.5,0.5 0.20672,0.31009 0.38215,0.64645 0.5,1 0.49614,1.48842 -1.18394,-1.0259 0.5,1.5 0.31194,0.46791 1.67978,1.67979 2,2 0.57049,0.5705 1.87759,2.0332 2.5,2.5 0.29814,0.22361 0.68991,0.29328 1,0.5 0.19612,0.13075 0.30388,0.36926 0.5,0.5 0.31009,0.20673 0.68991,0.29328 1,0.5 0.39223,0.26149 0.55279,0.85093 1,1 0.31623,0.10541 0.68377,-0.1054 1,0 0.22361,0.0745 0.28918,0.3946 0.5,0.5 0.29814,0.14908 0.68377,-0.1054 1,0 0.70711,0.23571 1.2769,0.81923 2,1 0.32338,0.0809 0.66667,0 1,0 1.16667,0 2.33333,0 3.5,0 1,0 2,0 3,0 0.17034,0 1.7294,0.0902 2,0 0.35355,-0.11785 0.68991,-0.29327 1,-0.5 0.19612,-0.13074 0.33333,-0.33333 0.5,-0.5 0.33333,-0.33333 0.73851,-0.60776 1,-1 0.0925,-0.13867 -0.0745,-0.35092 0,-0.5 1.14415,-2.2883 -0.20724,2.12171 1,-1.5 0.0527,-0.15811 -0.0527,-0.34188 0,-0.5 0.2357,-0.7071 0.7643,-1.29289 1,-2 0.0527,-0.15811 -0.0527,-0.34188 0,-0.5 0.2357,-0.7071 0.7643,-1.29289 1,-2 0.10541,-0.31622 -0.10541,-0.68377 0,-1 0.11785,-0.35355 0.38215,-0.64644 0.5,-1 0.0527,-0.15811 -0.0745,-0.35092 0,-0.5 0.10541,-0.21081 0.39459,-0.28918 0.5,-0.5 0.2,-0.4 -0.2,-1.1 0,-1.5 0.10541,-0.21081 0.39459,-0.28918 0.5,-0.5 0.0761,-0.15216 0,-1.27482 0,-1.5 0,-0.34777 0.0904,-2.31918 0,-2.5 -0.10541,-0.21081 -0.39459,-0.28918 -0.5,-0.5 -0.0745,-0.14907 0.0527,-0.34188 0,-0.5 -0.11785,-0.35355 -0.38215,-0.64644 -0.5,-1 -0.0527,-0.15811 0.0745,-0.35092 0,-0.5 -0.10541,-0.21081 -0.39459,-0.28918 -0.5,-0.5 -0.0745,-0.14907 0.0745,-0.35092 0,-0.5 -0.10541,-0.21081 -0.39459,-0.28918 -0.5,-0.5 -0.0745,-0.14907 0.0745,-0.35092 0,-0.5 -0.10541,-0.21081 -0.39459,-0.28918 -0.5,-0.5 -0.0745,-0.14907 0.0745,-0.35092 0,-0.5 -0.13352,-0.26704 -1.23677,-1.23676 -1.5,-1.5 -0.16667,-0.16666 -0.33333,-0.33333 -0.5,-0.5 -0.16667,-0.16666 -0.28918,-0.39459 -0.5,-0.5 -0.14907,-0.0745 -0.35093,0.0745 -0.5,0 -0.21082,-0.1054 -0.33333,-0.33333 -0.5,-0.5 -0.39054,-0.39054 -1.06855,-1.21236 -1.5,-1.5 -0.62017,-0.41344 -1.37983,-0.58655 -2,-1 -0.19612,-0.13074 -0.28918,-0.39459 -0.5,-0.5 -0.14907,-0.0745 -0.38215,0.11786 -0.5,0 -0.11785,-0.11785 0.11785,-0.38214 0,-0.5 -0.11785,-0.11785 -0.35093,0.0745 -0.5,0 -0.21082,-0.1054 -0.33333,-0.33333 -0.5,-0.5"
       id="path3348"
       inkscape:connector-curvature="0" />
    <path
       style="fill:none;fill-rule:evenodd;stroke:#000000;stroke-width:1px;stroke-linecap:butt;stroke-linejoin:miter;stroke-opacity:1"
       d="m 230,492.3622 c -0.0368,1.35013 -1.8347,2.00206 -2.5,3 -0.20672,0.31009 -0.23648,0.73648 -0.5,1 -0.11785,0.11786 -0.38215,-0.11785 -0.5,0 -1.95137,1.95137 0.11574,0.26853 -0.5,1.5 -0.10541,0.21082 -0.39459,0.28919 -0.5,0.5 -0.0745,0.14908 0.0745,0.35093 0,0.5 -0.21082,0.42164 -0.78918,0.57837 -1,1 -0.0745,0.14908 0.0745,0.35093 0,0.5 -1.13807,1.13808 -0.13215,-0.10355 -0.5,1 -1.20724,3.62171 0.14415,-0.7883 -1,1.5 -0.0745,0.14908 0.0745,0.35093 0,0.5 -0.10541,0.21082 -0.39459,0.28919 -0.5,0.5 -0.14907,0.29815 0.14907,0.70186 0,1 -0.10541,0.21082 -0.39459,0.28919 -0.5,0.5 -0.13256,0.26512 0.11338,2.15985 0,2.5 -0.0745,0.22361 -0.42546,0.2764 -0.5,0.5 -0.10541,0.31623 0,0.66667 0,1 0,0.83334 0,1.66667 0,2.5 0,0.34777 -0.0904,2.31919 0,2.5 0.10541,0.21082 0.39459,0.28919 0.5,0.5 0.0657,0.13148 0,1.73854 0,2 0,0.33334 0,0.66667 0,1 0,0.16667 -0.0527,0.34189 0,0.5 0.11785,0.35356 0.38215,0.64645 0.5,1 0.10541,0.31623 -0.10541,0.68378 0,1 0.11785,0.35356 0.38215,0.64645 0.5,1 0.0527,0.15812 -0.0527,0.34189 0,0.5 0.11785,0.35356 0.38215,0.64645 0.5,1 0.0527,0.15812 -0.0527,0.34189 0,0.5 0.11785,0.35356 0.29328,0.68992 0.5,1 0.13074,0.19612 0.42546,0.2764 0.5,0.5 0.7216,2.16481 -0.95585,-0.18377 0.5,2 0.39223,0.58835 1.07574,0.93432 1.5,1.5 0.22361,0.29815 0.29328,0.68992 0.5,1 0.13074,0.19612 0.33333,0.33334 0.5,0.5 0.5,0.5 1,1 1.5,1.5 0.40153,0.40153 2.06681,2.21121 2.5,2.5 0.13868,0.0924 0.35093,-0.0745 0.5,0 0.21082,0.10541 0.33333,0.33334 0.5,0.5 0.33333,0.33334 0.60777,0.73852 1,1 0.13868,0.0924 0.35093,-0.0745 0.5,0 0.21082,0.10541 0.28918,0.3946 0.5,0.5 0.0426,0.0213 1.95738,0.0213 2,0 0.21082,-0.1054 0.28918,-0.39459 0.5,-0.5 0.14907,-0.0745 0.35093,0.0745 0.5,0 0.21082,-0.1054 0.27639,-0.42546 0.5,-0.5 0.31623,-0.1054 0.68377,0.10541 1,0 0.22361,-0.0745 0.27639,-0.42546 0.5,-0.5 0.31623,-0.1054 0.66667,0 1,0 0.33333,-0.16666 0.65398,-0.36159 1,-0.5 0.48935,-0.19574 0.98319,-0.39663 1.5,-0.5 0.32686,-0.0654 0.70186,0.14908 1,0 0.42164,-0.21081 0.62288,-0.71715 1,-1 0.29814,-0.2236 0.70186,-0.27639 1,-0.5 0.37712,-0.28284 0.62288,-0.71715 1,-1 0.29814,-0.2236 0.73648,-0.23647 1,-0.5 0.26352,-0.26352 0.27639,-0.70185 0.5,-1 0.28284,-0.37712 0.75746,-0.59577 1,-1 1.29423,-2.15705 0.0643,-0.75739 0.5,-2.5 0.0904,-0.36155 0.40961,-0.63844 0.5,-1 0.0808,-0.32338 0,-0.66666 0,-1 0,-0.33333 0,-0.66666 0,-1 0,-0.33333 0,-0.66666 0,-1 0,-0.33333 -0.10541,-0.68377 0,-1 0.0745,-0.2236 0.42546,-0.27639 0.5,-0.5 0.10541,-0.31622 0,-0.66666 0,-1 0,-0.83333 0,-1.66666 0,-2.5 0,-2 0,-4 0,-6 0,-1.66666 0,-3.33333 0,-5 0,-0.11881 0.056,-1.88793 0,-2 -0.10541,-0.21081 -0.42546,-0.27639 -0.5,-0.5 -0.15811,-0.47434 0.15811,-1.02565 0,-1.5 -0.11785,-0.35355 -0.38215,-0.64644 -0.5,-1 -0.10541,-0.31622 0.10541,-0.68377 0,-1 -0.11785,-0.35355 -0.38215,-0.64644 -0.5,-1 -0.0527,-0.15811 0.0745,-0.35092 0,-0.5 -0.21082,-0.42163 -0.78918,-0.57836 -1,-1 -0.0745,-0.14907 0.11785,-0.38214 0,-0.5 -0.11785,-0.11785 -0.35093,0.0745 -0.5,0 -0.42164,-0.21081 -0.55279,-0.85092 -1,-1 -0.31623,-0.1054 -0.68377,0.10541 -1,0 -0.22361,-0.0745 -0.27639,-0.42546 -0.5,-0.5 -0.31623,-0.1054 -0.67662,0.0809 -1,0 -0.7231,-0.18077 -1.29289,-0.76429 -2,-1 -0.47434,-0.15811 -1.02566,0.15812 -1.5,0 -0.22361,-0.0745 -0.28918,-0.39459 -0.5,-0.5 -0.29768,-0.14884 -2.07903,0.14033 -2.5,0 -0.35355,-0.11785 -0.63239,-0.43873 -1,-0.5 -0.98639,-0.16439 -2,0 -3,0 -0.33333,0 -0.67662,0.0809 -1,0 -1.02262,-0.25565 -1.94591,-1 -3,-1 -0.74536,0 -1.33333,0.66667 -2,1"
       id="path3350"
       inkscape:connector-curvature="0" />
    <path
       style="fill:none;fill-rule:evenodd;stroke:#000000;stroke-width:1px;stroke-linecap:butt;stroke-linejoin:miter;stroke-opacity:1"
       d="m 232.5,567.3622 c -0.66667,-0.33333 -1.29289,-0.76429 -2,-1 -0.1395,-0.0465 -3.47639,-0.008 -3.5,0 -0.22361,0.0745 -0.27639,0.42547 -0.5,0.5 -0.47434,0.15812 -1.02566,-0.15811 -1.5,0 -0.35355,0.11786 -0.64645,0.38215 -1,0.5 -0.15811,0.0527 -0.34189,-0.0527 -0.5,0 -0.70711,0.23571 -1.29289,0.7643 -2,1 -1.48842,0.49614 1.0259,-1.18393 -1.5,0.5 -0.39223,0.26149 -0.60777,0.73852 -1,1 -0.31009,0.20673 -0.68991,0.29328 -1,0.5 -0.19612,0.13075 -0.33333,0.33334 -0.5,0.5 -0.5,0.5 -1,1 -1.5,1.5 -0.39054,0.39055 -1.21237,1.06855 -1.5,1.5 -0.57454,0.86181 -0.5,0.7558 -0.5,1.5 0,0.16667 0.0745,0.35093 0,0.5 -0.10541,0.21082 -0.39459,0.28919 -0.5,0.5 -0.15858,0.31716 0.16241,2.17519 0,2.5 -0.46746,0.93492 -0.87936,-0.0174 -0.5,1.5 0.0904,0.36156 0.38215,0.64645 0.5,1 0.16151,0.48454 -0.16151,2.01547 0,2.5 0.11785,0.35356 0.38215,0.64645 0.5,1 0.0527,0.15812 -0.0527,0.34189 0,0.5 0.11785,0.35356 0.38215,0.64645 0.5,1 0.0527,0.15812 -0.0527,0.34189 0,0.5 0.11785,0.35356 0.38215,0.64645 0.5,1 0.0527,0.15812 -0.0745,0.35093 0,0.5 0.10541,0.21082 0.36926,0.30389 0.5,0.5 1.10158,0.2518 0.2643,1.0286 0.5,1.5 0.10541,0.21082 0.39459,0.28919 0.5,0.5 0.0745,0.14908 -0.0745,0.35093 0,0.5 0.21082,0.42164 0.73851,0.60777 1,1 0.20672,0.31009 0.29328,0.68992 0.5,1 0.14129,0.21194 1.29312,1.39657 1.5,1.5 0.14907,0.0745 0.35093,-0.0745 0.5,0 0.44317,0.22159 1.04484,1.19657 1.5,1.5 0.31009,0.20673 0.68991,0.29328 1,0.5 0.19612,0.13075 0.33333,0.33334 0.5,0.5 0.57208,0.57208 0.59189,0.6973 1.5,1 0.15811,0.0527 0.34189,-0.0527 0.5,0 2.18405,0.72802 -0.35264,0.35895 2.5,1.5 0.30949,0.1238 0.67662,-0.0808 1,0 0.99294,0.24824 2.00706,1.25177 3,1.5 0.32338,0.0808 0.67662,-0.0808 1,0 0.36155,0.0904 0.63845,0.40962 1,0.5 0.32338,0.0808 0.66667,0 1,0 0.33333,0.16667 0.64645,0.38215 1,0.5 0.3305,0.11017 2.96358,0 3.5,0 0.44686,0 2.34066,0.0797 2.5,0 0.21082,-0.1054 0.28918,-0.39459 0.5,-0.5 0.14907,-0.0745 0.33333,0 0.5,0 0.33333,0 0.67662,0.0808 1,0 1.45012,-0.36252 0.58513,-0.39008 1.5,-1 3.03553,-2.02368 -1.56557,1.43934 2.5,-1 0.40423,-0.24253 0.60777,-0.73851 1,-1 0.13868,-0.0924 0.33333,0 0.5,0 0.33333,-0.33333 0.62288,-0.71715 1,-1 0.29814,-0.2236 0.68991,-0.29327 1,-0.5 0.19612,-0.13074 0.33333,-0.33333 0.5,-0.5 0.5,-0.33333 0.98471,-0.69082 1.5,-1 0.63914,-0.38348 1.40372,-0.55278 2,-1 2.16265,-2.16264 -0.13246,-0.0784 2,-1.5 0.20541,-0.13694 1.36306,-1.29458 1.5,-1.5 0.41345,-0.62017 0.58655,-1.37982 1,-2 0.13074,-0.19611 0.42546,-0.27639 0.5,-0.5 0.15811,-0.47434 -0.15811,-1.02565 0,-1.5 0.11785,-0.35355 0.40961,-0.63844 0.5,-1 0.0808,-0.32338 0,-0.66666 0,-1 0,-0.33333 0,-0.66666 0,-1 0,-0.16666 -0.0527,-0.34188 0,-0.5 0.57454,-1.7236 0.5,-0.37038 0.5,-1.5 0,-0.16666 0.0745,-0.35092 0,-0.5 -0.10541,-0.21081 -0.33333,-0.33333 -0.5,-0.5 0,-0.33333 0.10541,-0.68377 0,-1 -0.0745,-0.2236 -0.36926,-0.30388 -0.5,-0.5 -0.41345,-0.62017 -0.58655,-1.37982 -1,-2 -0.13074,-0.19611 -0.39459,-0.28918 -0.5,-0.5 -0.0745,-0.14907 0.0745,-0.35092 0,-0.5 -0.10541,-0.21081 -0.39459,-0.28918 -0.5,-0.5 -0.0745,-0.14907 0.0745,-0.35092 0,-0.5 -0.13352,-0.26704 -1.23677,-1.23676 -1.5,-1.5 -0.26323,-0.26323 -1.23296,-1.36647 -1.5,-1.5 -0.14907,-0.0745 -0.34189,0.0527 -0.5,0 -0.35355,-0.11785 -0.64645,-0.38214 -1,-0.5 -0.15811,-0.0527 -0.35093,0.0745 -0.5,0 -2.2883,-1.14415 2.12171,0.20724 -1.5,-1 -0.31623,-0.1054 -0.70186,0.14908 -1,0 -0.21082,-0.1054 -0.28918,-0.39459 -0.5,-0.5 -0.14907,-0.0745 -0.35093,0.0745 -0.5,0 -0.21082,-0.1054 -0.28918,-0.39459 -0.5,-0.5 -0.14907,-0.0745 -0.35093,0.0745 -0.5,0 -0.21082,-0.1054 -0.28918,-0.39459 -0.5,-0.5 -0.14907,-0.0745 -0.35093,0.0745 -0.5,0 -1.52478,-0.76239 0.91447,-0.39638 -1.5,-1 -0.32338,-0.0808 -0.67662,0.0808 -1,0 -0.36155,-0.0904 -0.64645,-0.38214 -1,-0.5 -0.15811,-0.0527 -0.34189,0.0527 -0.5,0 -0.35355,-0.11785 -0.63845,-0.40961 -1,-0.5 -0.48507,-0.12126 -1.02566,0.15812 -1.5,0 -0.35355,-0.11785 -0.64645,-0.38214 -1,-0.5 -0.15811,-0.0527 -0.35093,0.0745 -0.5,0 -0.21082,-0.1054 -0.28918,-0.39459 -0.5,-0.5 -0.29814,-0.14907 -0.7643,0.23571 -1,0 -0.11785,-0.11785 0.11785,-0.38214 0,-0.5 -0.11785,-0.11785 -0.33333,0 -0.5,0 -1,0 -2,0 -3,0"
       id="path3352"
       inkscape:connector-curvature="0" />
    <path
       style="fill:none;fill-rule:evenodd;stroke:#000000;stroke-width:1px;stroke-linecap:butt;stroke-linejoin:miter;stroke-opacity:1"
       d="m 246.5,451.3622 c 11.66667,0 23.33333,0 35,0 2.33333,0 4.66667,0 7,0 0.66667,0 1.33333,0 2,0 0.5,0 1.0068,-0.0822 1.5,0 0.51988,0.0867 0.97295,0.5 1.5,0.5 0.37268,0 0.63456,-0.42691 1,-0.5 0.65634,-0.13126 2.20505,0 3,0 0.16667,0 0.33333,0 0.5,0 0.16667,0 0.38215,-0.11785 0.5,0 0.11785,0.11786 -0.0745,0.35093 0,0.5 0.10541,0.21082 0.39459,0.28919 0.5,0.5 0.0745,0.14908 -0.0745,0.35093 0,0.5 2.35809,4.71618 0.0937,-0.10948 1.5,2 0.20672,0.31009 0.29328,0.68992 0.5,1 0.46225,0.69338 1.03775,1.30663 1.5,2 0.20672,0.31009 0.27639,0.70186 0.5,1 0.28284,0.37713 0.70552,0.6319 1,1 0.75079,0.93849 1.24921,2.06152 2,3 1.6847,2.10588 0.45621,-0.0876 1.5,2 0.33333,0.66667 0.6302,1.35285 1,2 0.59628,1.0435 1.40372,1.95651 2,3 0.3698,0.64715 0.6302,1.35285 1,2 0.59628,1.0435 1.36302,1.98084 2,3 0.51507,0.82411 0.98493,1.6759 1.5,2.5 0.31849,0.50959 0.68151,0.99042 1,1.5 0.51507,0.82411 0.96093,1.6914 1.5,2.5 0.46225,0.69338 0.95767,1.36729 1.5,2 1.88802,2.2027 1.31289,0.80064 3,3.5 0.39504,0.63207 0.56677,1.39348 1,2 0.82199,1.1508 2.17801,1.84921 3,3 0.43323,0.60653 0.58655,1.37983 1,2 0.26149,0.39224 0.66667,0.66667 1,1 0.66667,0.66667 1.33333,1.33334 2,2 0.33333,0.33334 0.75746,0.59578 1,1 0.27116,0.45194 0.2643,1.0286 0.5,1.5 0.26874,0.53749 0.69083,0.98472 1,1.5 0.19174,0.31957 0.27639,0.70186 0.5,1 0.28284,0.37713 0.70552,0.6319 1,1 0.3754,0.46925 0.63944,1.01926 1,1.5 0.28284,0.37713 0.73851,0.60777 1,1 0.41345,0.62018 0.55279,1.40372 1,2 0.56569,0.75425 1.43431,1.24576 2,2 0.22361,0.29815 0.27639,0.70186 0.5,1 0.28284,0.37713 0.66667,0.66667 1,1 0.33333,0.33334 0.66667,0.66667 1,1 0.16667,0.16667 0.36926,0.30389 0.5,0.5 0.20672,0.31009 0.27639,0.70186 0.5,1 0.28284,0.37713 0.71716,0.62288 1,1 2.13246,2.84328 -1.56177,-1.06176 1.5,2 3.06177,3.06177 -0.63246,-0.84327 1.5,2 0.28284,0.37713 0.66667,0.66667 1,1 0.83333,0.83334 1.66667,1.66667 2.5,2.5 0.66667,0.66667 1.33333,1.33334 2,2 0.33333,0.33334 0.66667,0.66667 1,1 0.16667,0.16667 0.39459,0.28919 0.5,0.5 0.29315,0.5863 -0.29672,0.59345 -0.5,1 -0.14907,0.29815 0.14907,0.70186 0,1 -0.21082,0.42164 -0.78918,0.57837 -1,1 -0.0745,0.14908 0.0745,0.35093 0,0.5 -0.21082,0.42164 -0.78918,0.57837 -1,1 -0.0745,0.14908 0.0745,0.35093 0,0.5 -0.10541,0.21082 -0.36926,0.30389 -0.5,0.5 -0.20672,0.31009 -0.27639,0.70186 -0.5,1 -0.28284,0.37713 -0.73851,0.60777 -1,1 -0.0924,0.13868 0.0924,0.36133 0,0.5 -0.26149,0.39224 -0.73851,0.60777 -1,1 -0.0924,0.13868 0,0.33334 0,0.5 -0.33333,0.33334 -0.71716,0.62288 -1,1 -0.44721,0.59629 -0.55279,1.40372 -1,2 -2.16265,2.16265 -0.0784,-0.13245 -1.5,2 -0.49049,0.73574 -1.50951,1.26427 -2,2 -0.20672,0.31009 -0.29328,0.68992 -0.5,1 -0.26149,0.39224 -0.66667,0.66667 -1,1 -0.5,0.5 -1,1 -1.5,1.5 -0.33333,0.33334 -0.60777,0.73852 -1,1 -0.31009,0.20673 -0.68991,0.29328 -1,0.5 -0.19612,0.13075 -0.33333,0.33334 -0.5,0.5 -0.54422,0.54422 -1.44095,1.6273 -2,2 -0.13868,0.0924 -0.35093,-0.0745 -0.5,0 -0.21082,0.10541 -0.33333,0.33334 -0.5,0.5 -0.33333,0.33334 -0.60777,0.73852 -1,1 -0.13868,0.0924 -0.36132,-0.0924 -0.5,0 -0.88738,0.59159 -1.63442,1.85082 -2.5,2.5 -0.29814,0.22361 -0.68991,0.29328 -1,0.5 -0.26746,0.17831 -1.96301,1.95069 -2,2 -0.22361,0.29815 -0.23648,0.73648 -0.5,1 -0.26352,0.26353 -0.73648,0.23648 -1,0.5 -0.26352,0.26353 -0.29328,0.68992 -0.5,1 -0.13074,0.19612 -0.36926,0.30389 -0.5,0.5 -0.20672,0.31009 -0.27639,0.70186 -0.5,1 -0.42426,0.56569 -1.10777,0.91166 -1.5,1.5 -0.20672,0.31009 -0.29328,0.68992 -0.5,1 -0.38462,0.57693 -1.11538,0.92308 -1.5,1.5 -0.20672,0.31009 -0.29328,0.68992 -0.5,1 -0.26149,0.39224 -0.66667,0.66667 -1,1 -0.66667,0.66667 -1.33333,1.33334 -2,2 -0.29407,0.29408 -1.76846,1.88424 -2,2 -0.14907,0.0745 -0.35093,-0.0745 -0.5,0 -0.0957,0.0479 -1.95214,1.90429 -2,2 -0.0745,0.14908 0.0745,0.35093 0,0.5 -0.10541,0.21082 -0.39459,0.28919 -0.5,0.5 -0.14907,0.29815 0.14907,0.70186 0,1 -0.21082,0.42164 -0.78918,0.57837 -1,1 -0.14907,0.29815 0.14907,0.70186 0,1 -0.10541,0.21082 -0.39459,0.28919 -0.5,0.5 -0.0745,0.14908 0.0745,0.35093 0,0.5 -0.10541,0.21082 -0.39459,0.28919 -0.5,0.5 -0.34484,0.68968 0.60553,0.44724 -0.5,1 -0.10262,0.0513 -2.35151,0.0495 -2.5,0 -0.35355,-0.11785 -0.63845,-0.40961 -1,-0.5 -0.33837,-0.0846 -3.17825,0 -3.5,0 -2,0 -4,0 -6,0 -5.83333,0 -11.66667,0 -17.5,0 -1.66667,0 -3.33333,0 -5,0 -0.27908,0 -2.27112,-0.0763 -2.5,0 -0.22361,0.0745 -0.28918,0.3946 -0.5,0.5 -0.32417,0.16209 -2.52894,-0.15701 -3,0 -1.72361,0.57454 -0.37038,0.5 -1.5,0.5 -0.47092,0 -2.21557,-0.0948 -2.5,0 -0.22361,0.0745 -0.27639,0.42547 -0.5,0.5 -0.2688,0.0896 -1.57667,0 -2,0 -1.33333,0 -2.66667,0 -4,0 -0.12126,0 -1.48392,-0.0161 -1.5,0 -0.11785,0.11786 0,0.33334 0,0.5"
       id="path3354"
       inkscape:connector-curvature="0" />
    <path
       style="fill:none;fill-rule:evenodd;stroke:#000000;stroke-width:1px;stroke-linecap:butt;stroke-linejoin:miter;stroke-opacity:1"
       d="m 251.5,511.3622 c 9.66667,0 19.33333,0 29,0 1,0 2,0 3,0 0.16667,0 0.33333,0 0.5,0 0.16667,0 0.35093,0.0745 0.5,0 0.21082,-0.1054 0.27639,-0.42546 0.5,-0.5 0.10522,-0.0351 2.23994,-0.065 2.5,0 0.51131,0.12783 0.98319,0.39664 1.5,0.5 0.32686,0.0654 0.67662,-0.0808 1,0 0.36155,0.0904 0.64645,0.38215 1,0.5 0.31623,0.10541 0.66667,0 1,0"
       id="path3356"
       inkscape:connector-curvature="0" />
    <path
       style="fill:none;fill-rule:evenodd;stroke:#000000;stroke-width:1px;stroke-linecap:butt;stroke-linejoin:miter;stroke-opacity:1"
       d="m 292,511.8622 c 0.83333,0.33334 1.66667,0.66667 2.5,1 0.16667,0 0.34189,-0.0527 0.5,0 0.35355,0.11786 0.63845,0.40962 1,0.5 0.32338,0.0808 0.67662,-0.0808 1,0 0.36155,0.0904 0.64645,0.38215 1,0.5 0.15811,0.0527 0.33831,-0.0404 0.5,0 0.51131,0.12783 0.98869,0.37218 1.5,0.5 0.16169,0.0404 0.34189,-0.0527 0.5,0 0.70711,0.23571 1.29289,0.7643 2,1 0.15811,0.0527 0.34189,-0.0527 0.5,0 0.70711,0.23571 1.29289,0.7643 2,1 0.15811,0.0527 0.34189,-0.0527 0.5,0 0.70711,0.23571 1.30795,0.72319 2,1 0.9787,0.39148 2,0.66667 3,1 0.5,0.16667 0.98869,0.37218 1.5,0.5 0.16169,0.0404 0.34189,-0.0527 0.5,0 0.35355,0.11786 0.64645,0.38215 1,0.5 0.15811,0.0527 0.34189,-0.0527 0.5,0 0.35355,0.11786 0.64645,0.38215 1,0.5 0.15811,0.0527 0.34189,-0.0527 0.5,0 0.35355,0.11786 0.64645,0.38215 1,0.5 0.15811,0.0527 0.34189,-0.0527 0.5,0 0.35355,0.11786 0.63845,0.40962 1,0.5 0.32338,0.0808 0.68377,-0.1054 1,0 0.22361,0.0745 0.28918,0.3946 0.5,0.5 0.31426,0.15714 1.68574,-0.15713 2,0 0.21082,0.10541 0.28918,0.3946 0.5,0.5 0.14907,0.0745 0.33333,0 0.5,0 0.16667,0 0.33333,0 0.5,0 0.5933,0 3.51474,-0.0971 4,0 0.36544,0.0731 0.63456,0.42692 1,0.5 0.81715,0.16343 1.69155,-0.20211 2.5,0 0.36155,0.0904 0.63456,0.42692 1,0.5 0.98058,0.19612 2.01361,-0.16439 3,0 1.03975,0.1733 1.96638,0.79328 3,1 0.54147,0.1083 2.96551,0 3.5,0 0.33333,0 0.66667,0 1,0 0.16667,0 0.34189,-0.0527 0.5,0 0.35355,0.11786 0.64645,0.38215 1,0.5 0.29814,0.0994 2.51557,0 3,0 0.16667,0 0.34189,-0.0527 0.5,0 0.35355,0.11786 0.64645,0.38215 1,0.5 0.15811,0.0527 0.35093,-0.0745 0.5,0 0.21082,0.10541 0.28918,0.3946 0.5,0.5 0.34537,0.17269 2.32449,-0.1755 2.5,0 0.66667,0.66667 -0.83333,0.5 0.5,0.5"
       id="path3360"
       inkscape:connector-curvature="0" />
    <text
       xml:space="preserve"
       style="font-style:normal;font-weight:normal;font-size:13.75px;line-height:125%;font-family:sans-serif;letter-spacing:0px;word-spacing:0px;fill:#000000;fill-opacity:1;stroke:none;stroke-width:1px;stroke-linecap:butt;stroke-linejoin:miter;stroke-opacity:1"
       x="396"
       y="472.36221"
       id="text3362"
       sodipodi:linespacing="125%"><tspan
         sodipodi:role="line"
         x="396"
         y="472.36221"
         id="tspan3428">// Edge container implements netlist </tspan><tspan
         sodipodi:role="line"
         x="396"
         y="489.54971"
         id="tspan3432">&lt;a b c&gt; {</tspan><tspan
         sodipodi:role="line"
         x="396"
         y="506.73721"
         id="tspan3376">  hub [shape=point]</tspan><tspan
         sodipodi:role="line"
         x="396"
         y="523.92468"
         id="tspan3378">  &lt;:1 hub&gt;</tspan><tspan
         sodipodi:role="line"
         x="396"
         y="541.11218"
         id="tspan3380">  &lt;:2 hub&gt;</tspan><tspan
         sodipodi:role="line"
         x="396"
         y="558.29968"
         id="tspan3382">  &lt;:3 hub&gt;</tspan><tspan
         sodipodi:role="line"
         x="396"
         y="575.48718"
         id="tspan3392">}</tspan><tspan
         sodipodi:role="line"
         x="396"
         y="592.67468"
         id="tspan3366" /></text>
    <text
       xml:space="preserve"
       style="font-style:normal;font-weight:normal;font-size:13.75px;line-height:125%;font-family:sans-serif;letter-spacing:0px;word-spacing:0px;fill:#000000;fill-opacity:1;stroke:none;stroke-width:1px;stroke-linecap:butt;stroke-linejoin:miter;stroke-opacity:1"
       x="465.5"
       y="471.86221"
       id="text3368"
       sodipodi:linespacing="125%"><tspan
         sodipodi:role="line"
         x="465.5"
         y="471.86221"
         id="tspan3372" /></text>
    <text
       xml:space="preserve"
       style="font-style:normal;font-weight:normal;font-size:13.75px;line-height:125%;font-family:sans-serif;letter-spacing:0px;word-spacing:0px;fill:#000000;fill-opacity:1;stroke:none;stroke-width:1px;stroke-linecap:butt;stroke-linejoin:miter;stroke-opacity:1"
       x="474.5"
       y="540.36218"
       id="text3384"
       sodipodi:linespacing="125%"><tspan
         sodipodi:role="line"
         x="474.5"
         y="540.36218"
         id="tspan3388" /></text>
    <text
       xml:space="preserve"
       style="font-style:normal;font-weight:normal;font-size:13.75px;line-height:125%;font-family:sans-serif;letter-spacing:0px;word-spacing:0px;fill:#000000;fill-opacity:1;stroke:none;stroke-width:1px;stroke-linecap:butt;stroke-linejoin:miter;stroke-opacity:1"
       x="404.5"
       y="618.86218"
       id="text3404"
       sodipodi:linespacing="125%"><tspan
         sodipodi:role="line"
         id="tspan3406"
         x="404.5"
         y="618.86218">// Use nodelist to specify all legs</tspan><tspan
         sodipodi:role="line"
         x="404.5"
         y="636.04968"
         id="tspan3370">&lt;a b c&gt; {</tspan><tspan
         sodipodi:role="line"
         x="404.5"
         y="653.23718"
         id="tspan3408">  hub [shape=point]</tspan><tspan
         sodipodi:role="line"
         x="404.5"
         y="670.42468"
         id="tspan3410">  &lt;(:*) hub&gt;</tspan><tspan
         sodipodi:role="line"
         x="404.5"
         y="687.61218"
         id="tspan3412">}</tspan></text>
    <text
       xml:space="preserve"
       style="font-style:normal;font-weight:normal;font-size:13.75px;line-height:125%;font-family:sans-serif;letter-spacing:0px;word-spacing:0px;fill:#000000;fill-opacity:1;stroke:none;stroke-width:1px;stroke-linecap:butt;stroke-linejoin:miter;stroke-opacity:1"
       x="405.5"
       y="741.36218"
       id="text3414"
       sodipodi:linespacing="125%"><tspan
         sodipodi:role="line"
         id="tspan3416"
         x="405.5"
         y="741.36218">// Use edgepattern to implement</tspan><tspan
         sodipodi:role="line"
         x="405.5"
         y="758.54968"
         id="tspan3373">// all netlists in the container</tspan><tspan
         sodipodi:role="line"
         x="405.5"
         y="775.73718"
         id="tspan3375">&lt;*3+&gt;  {</tspan><tspan
         sodipodi:role="line"
         x="405.5"
         y="792.92468"
         id="tspan3420">  hub [shape=point]</tspan><tspan
         sodipodi:role="line"
         x="405.5"
         y="810.11218"
         id="tspan3422">  &lt;(:*) hub&gt;</tspan><tspan
         sodipodi:role="line"
         x="405.5"
         y="827.29968"
         id="tspan3424">}</tspan><tspan
         sodipodi:role="line"
         x="405.5"
         y="844.48718"
         id="tspan3426">&lt;a b c&gt;</tspan><tspan
         sodipodi:role="line"
         x="405.5"
         y="861.67468"
         id="tspan3418" /></text>
  </g>
</svg>
