<?xml version="1.0" encoding="UTF-8" standalone="no"?>
<!-- Created with Inkscape (http://www.inkscape.org/) -->

<svg
   xmlns:dc="http://purl.org/dc/elements/1.1/"
   xmlns:cc="http://creativecommons.org/ns#"
   xmlns:rdf="http://www.w3.org/1999/02/22-rdf-syntax-ns#"
   xmlns:svg="http://www.w3.org/2000/svg"
   xmlns="http://www.w3.org/2000/svg"
   xmlns:sodipodi="http://sodipodi.sourceforge.net/DTD/sodipodi-0.dtd"
   xmlns:inkscape="http://www.inkscape.org/namespaces/inkscape"
   width="210mm"
   height="297mm"
   viewBox="0 0 744.09448819 1052.3622047"
   id="svg3377"
   version="1.1"
   inkscape:version="0.91 r13725"
   sodipodi:docname="netlist.svg">
  <defs
     id="defs3379" />
  <sodipodi:namedview
     id="base"
     pagecolor="#ffffff"
     bordercolor="#666666"
     borderopacity="1.0"
     inkscape:pageopacity="0.0"
     inkscape:pageshadow="2"
     inkscape:zoom="2"
     inkscape:cx="375"
     inkscape:cy="520"
     inkscape:document-units="px"
     inkscape:current-layer="layer1"
     showgrid="false"
     inkscape:window-width="3840"
     inkscape:window-height="2076"
     inkscape:window-x="0"
     inkscape:window-y="53"
     inkscape:window-maximized="1" />
  <metadata
     id="metadata3382">
    <rdf:RDF>
      <cc:Work
         rdf:about="">
        <dc:format>image/svg+xml</dc:format>
        <dc:type
           rdf:resource="http://purl.org/dc/dcmitype/StillImage" />
        <dc:title />
      </cc:Work>
    </rdf:RDF>
  </metadata>
  <g
     inkscape:label="Layer 1"
     inkscape:groupmode="layer"
     id="layer1">
    <rect
       style="fill:#ffffff;stroke:none;stroke-width:0.90600002;stroke-miterlimit:4;stroke-dasharray:none"
       id="rect4228"
       width="234.5"
       height="193.5"
       x="213.5"
       y="364.86221" />
    <text
       xml:space="preserve"
       style="font-style:normal;font-weight:normal;font-size:13.75px;line-height:125%;font-family:sans-serif;letter-spacing:0px;word-spacing:0px;fill:#000000;fill-opacity:1;stroke:none;stroke-width:1px;stroke-linecap:butt;stroke-linejoin:miter;stroke-opacity:1"
       x="267.5"
       y="407.36221"
       id="text3385"
       sodipodi:linespacing="125%"><tspan
         sodipodi:role="line"
         id="tspan3387"
         x="267.5"
         y="407.36221">a</tspan></text>
    <text
       xml:space="preserve"
       style="font-style:normal;font-weight:normal;font-size:13.75px;line-height:125%;font-family:sans-serif;letter-spacing:0px;word-spacing:0px;fill:#000000;fill-opacity:1;stroke:none;stroke-width:1px;stroke-linecap:butt;stroke-linejoin:miter;stroke-opacity:1"
       x="270"
       y="465.86221"
       id="text3389"
       sodipodi:linespacing="125%"><tspan
         sodipodi:role="line"
         id="tspan3391"
         x="270"
         y="465.86221">b</tspan></text>
    <text
       xml:space="preserve"
       style="font-style:normal;font-weight:normal;font-size:13.75px;line-height:125%;font-family:sans-serif;letter-spacing:0px;word-spacing:0px;fill:#000000;fill-opacity:1;stroke:none;stroke-width:1px;stroke-linecap:butt;stroke-linejoin:miter;stroke-opacity:1"
       x="272.5"
       y="517.36218"
       id="text3393"
       sodipodi:linespacing="125%"><tspan
         sodipodi:role="line"
         id="tspan3395"
         x="272.5"
         y="517.36218">c</tspan></text>
    <path
       style="fill:none;fill-rule:evenodd;stroke:#000000;stroke-width:1px;stroke-linecap:butt;stroke-linejoin:miter;stroke-opacity:1"
       d="m 269,380.3622 c -0.66667,0.33334 -1.30795,0.72319 -2,1 -0.15475,0.0619 -0.35093,-0.0745 -0.5,0 -1.52478,0.76239 0.91447,0.39639 -1.5,1 -0.48507,0.12127 -1.02566,-0.15811 -1.5,0 -3.10355,1.03452 1.66176,-0.0404 -2.5,1 -0.16169,0.0404 -0.34189,-0.0527 -0.5,0 -1.12257,0.37419 -1.35894,0.92948 -2.5,1.5 -0.14907,0.0745 -0.35093,-0.0745 -0.5,0 -0.21082,0.10541 -0.33333,0.33334 -0.5,0.5 -0.32022,0.32022 -1.53209,1.68807 -2,2 -0.72864,0.48577 -1.04143,0.31215 -1.5,1 -0.20672,0.31009 -0.29328,0.68992 -0.5,1 -0.28763,0.43145 -1.10946,1.10946 -1.5,1.5 -0.16667,0.16667 -0.39459,0.28919 -0.5,0.5 -0.0745,0.14908 0.0745,0.35093 0,0.5 -0.10541,0.21082 -0.39459,0.28919 -0.5,0.5 -0.0745,0.14908 0.0745,0.35093 0,0.5 -0.10541,0.21082 -0.39459,0.28919 -0.5,0.5 -0.14907,0.29815 0.14907,0.70186 0,1 -0.10541,0.21082 -0.42546,0.2764 -0.5,0.5 -0.15811,0.47435 0,1 0,1.5 0,1.16667 0,2.33334 0,3.5 0,1.16667 0,2.33334 0,3.5 0,0.17034 -0.0902,1.7294 0,2 0.11785,0.35356 0.38215,0.64645 0.5,1 0.10541,0.31623 -0.14907,0.70186 0,1 0.10541,0.21082 0.42546,0.2764 0.5,0.5 0.10541,0.31623 -0.10541,0.68378 0,1 0.0745,0.22361 0.36926,0.30389 0.5,0.5 0.41345,0.62018 0.58655,1.37983 1,2 0.13074,0.19612 0.36926,0.30389 0.5,0.5 0.20672,0.31009 0.29328,0.68992 0.5,1 0.13074,0.19612 0.36926,0.30389 0.5,0.5 0.20672,0.31009 0.29328,0.68992 0.5,1 0.13074,0.19612 0.33333,0.33334 0.5,0.5 0.5,0.5 1,1 1.5,1.5 0.33333,0.33334 0.66667,0.66667 1,1 0.16667,0.16667 0.30388,0.36926 0.5,0.5 0.2518,1.10159 1.0286,0.2643 1.5,0.5 0.21082,0.10541 0.28918,0.3946 0.5,0.5 0.14907,0.0745 0.35093,-0.0745 0.5,0 0.21082,0.10541 0.28918,0.3946 0.5,0.5 0.14907,0.0745 0.35093,-0.0745 0.5,0 0.21082,0.10541 0.28918,0.3946 0.5,0.5 0.29814,0.14908 0.70186,-0.14907 1,0 0.21082,0.10541 0.28918,0.3946 0.5,0.5 0.26439,0.1322 1.7564,-0.0609 2,0 0.36155,0.0904 0.64645,0.38215 1,0.5 0.15811,0.0527 0.33333,0 0.5,0 0.5,0 1.00971,0.0981 1.5,0 0.36544,-0.0731 0.63845,-0.40961 1,-0.5 0.32338,-0.0808 0.67662,0.0809 1,0 0.36155,-0.0904 0.63845,-0.40961 1,-0.5 0.32338,-0.0808 0.68377,0.10541 1,0 0.22361,-0.0745 0.30388,-0.36925 0.5,-0.5 0.31009,-0.20672 0.64645,-0.38214 1,-0.5 0.27566,-0.0919 1.8931,0.1069 2,0 0.26352,-0.26352 0.23648,-0.73647 0.5,-1 0.42492,-0.42491 1.01926,-0.63944 1.5,-1 0.18856,-0.14142 0.30388,-0.36925 0.5,-0.5 0.92308,-0.61538 2.07692,-0.88461 3,-1.5 0.19612,-0.13074 0.27639,-0.42546 0.5,-0.5 0.31623,-0.1054 0.66667,0 1,0 0.16667,0 0.35093,0.0745 0.5,0 0.21082,-0.1054 0.28918,-0.39459 0.5,-0.5 0.29814,-0.14907 0.85093,0.29815 1,0 0.14907,-0.29814 -0.10541,-0.68377 0,-1 0.0745,-0.2236 0.39459,-0.28918 0.5,-0.5 0.0745,-0.14907 -0.0745,-0.35092 0,-0.5 0.10541,-0.21081 0.39459,-0.28918 0.5,-0.5 0.0745,-0.14907 -0.0527,-0.34188 0,-0.5 0.11785,-0.35355 0.33333,-0.66666 0.5,-1 0.16667,-0.33333 0.29328,-0.68991 0.5,-1 0.30344,-0.45515 1.27842,-1.05683 1.5,-1.5 0.0745,-0.14907 -0.0745,-0.35092 0,-0.5 0.10541,-0.21081 0.39459,-0.28918 0.5,-0.5 0.0745,-0.14907 -0.0527,-0.34188 0,-0.5 0.11785,-0.35355 0.38215,-0.64644 0.5,-1 0.0527,-0.15811 -0.0527,-0.34188 0,-0.5 0.11785,-0.35355 0.38215,-0.64644 0.5,-1 0.1771,-0.5313 -0.1771,-1.46869 0,-2 0.57454,-1.7236 0.5,-0.37038 0.5,-1.5 0,-0.16666 0.0745,-0.35092 0,-0.5 -0.10541,-0.21081 -0.39459,-0.28918 -0.5,-0.5 -0.14907,-0.29814 0.10541,-0.68377 0,-1 -0.11785,-0.35355 -0.38215,-0.64644 -0.5,-1 -0.11464,-0.34391 0.14751,-1.20499 0,-1.5 -0.10541,-0.21081 -0.39459,-0.28918 -0.5,-0.5 -0.0745,-0.14907 0,-0.33333 0,-0.5 -0.16667,-0.33333 -0.29328,-0.68991 -0.5,-1 -0.13074,-0.19611 -0.36926,-0.30388 -0.5,-0.5 -0.41345,-0.62017 -0.58655,-1.37982 -1,-2 -0.39223,-0.58834 -1.07574,-0.93431 -1.5,-1.5 -0.22361,-0.29814 -0.29328,-0.68991 -0.5,-1 -0.45857,-0.68785 -0.77136,-0.51423 -1.5,-1 -0.57692,-0.38461 -0.92308,-1.11538 -1.5,-1.5 -1.81623,-1.21081 -0.35358,0.14642 -1.5,-1 -0.26323,-0.26323 -1.23296,-1.36647 -1.5,-1.5 -0.14907,-0.0745 -0.35093,0.0745 -0.5,0 -0.21082,-0.1054 -0.28918,-0.39459 -0.5,-0.5 -0.14907,-0.0745 -0.35093,0.0745 -0.5,0 -0.42164,-0.21081 -0.57836,-0.78918 -1,-1 -0.14907,-0.0745 -0.35093,0.0745 -0.5,0 -0.21082,-0.1054 -0.28918,-0.39459 -0.5,-0.5 -0.14907,-0.0745 -0.35093,0.0745 -0.5,0 -0.21082,-0.1054 -0.28918,-0.39459 -0.5,-0.5 -0.14907,-0.0745 -0.34189,0.0527 -0.5,0 -0.35355,-0.11785 -0.64645,-0.38214 -1,-0.5 -0.15811,-0.0527 -0.35093,0.0745 -0.5,0 -0.21082,-0.1054 -0.28918,-0.39459 -0.5,-0.5 -0.14907,-0.0745 -0.33657,-0.0327 -0.5,0 -0.67384,0.13477 -1.33333,0.33334 -2,0.5 z"
       id="path3397"
       inkscape:connector-curvature="0" />
    <path
       style="fill:none;fill-rule:evenodd;stroke:#000000;stroke-width:1px;stroke-linecap:butt;stroke-linejoin:miter;stroke-opacity:1"
       d="m 270.5,441.3622 c -1.42565,-0.5353 -2.13968,-0.5 -3.5,-0.5 -0.5,0 -1.00971,-0.0981 -1.5,0 -0.67384,0.13477 -1.32616,0.36524 -2,0.5 -0.65372,0.13075 -1.3424,-0.10959 -2,0 -1.56378,0.26063 -2.69263,1.21558 -4,2 -0.63914,0.38349 -1.33333,0.66667 -2,1 -0.33333,0.16667 -0.70186,0.2764 -1,0.5 -0.37636,0.28228 -2.21773,2.12364 -2.5,2.5 -0.22361,0.29815 -0.29328,0.68992 -0.5,1 -0.13074,0.19612 -0.36926,0.30389 -0.5,0.5 -0.20672,0.31009 -0.27639,0.70186 -0.5,1 -0.28284,0.37713 -0.73851,0.60777 -1,1 -0.0925,0.13868 0.0527,0.34189 0,0.5 -0.28573,0.8572 -1.0721,1.78685 -1.5,2.5 -1.10158,0.2518 -0.2643,1.0286 -0.5,1.5 -0.26874,0.53749 -0.69083,0.98472 -1,1.5 -0.70355,1.17259 -0.42761,1.06904 -1,2.5 -0.40878,1.02196 -1.00757,2.01514 -1.5,3 -0.16667,0.33334 -0.40961,0.63845 -0.5,1 -0.0808,0.32339 0.0808,0.67662 0,1 -0.18078,0.72311 -0.7643,1.2929 -1,2 -0.0527,0.15812 0.0745,0.35093 0,0.5 -0.10541,0.21082 -0.42546,0.2764 -0.5,0.5 -0.10541,0.31623 0,0.66667 0,1 0,0.16667 0.0745,0.35093 0,0.5 -0.10541,0.21082 -0.42546,0.2764 -0.5,0.5 -0.0955,0.2865 0,2.0306 0,2.5 0,0.19766 -0.10677,2.28646 0,2.5 0.0664,0.13276 1.36724,1.43363 1.5,1.5 0.14907,0.0745 0.35093,-0.0745 0.5,0 0.42164,0.21082 0.55279,0.85093 1,1 0.31623,0.10541 0.67662,-0.0808 1,0 0.36155,0.0904 0.64645,0.38215 1,0.5 0.15811,0.0527 0.33333,0 0.5,0 0.33333,0 0.66667,0 1,0 0.33333,0 0.68377,-0.1054 1,0 0.35355,0.11786 0.64645,0.38215 1,0.5 0.2821,0.094 1.17145,0 1.5,0 0.17034,0 1.7294,0.0902 2,0 0.35355,-0.11785 0.64645,-0.38214 1,-0.5 0.53131,-0.1771 1.46869,0.17711 2,0 0.22361,-0.0745 0.28918,-0.39459 0.5,-0.5 0.15934,-0.0797 2.05314,0 2.5,0 0.19766,0 2.28646,-0.10677 2.5,0 0.21082,0.10541 0.28918,0.3946 0.5,0.5 0.14907,0.0745 0.33333,0 0.5,0 0.16667,0 0.33333,0 0.5,0 0.83333,0 1.66667,0 2.5,0 0.33333,0 0.68377,-0.1054 1,0 0.35355,0.11786 0.64645,0.38215 1,0.5 0.42833,0.14278 1.55889,-0.11027 2,0 0.36155,0.0904 0.63845,0.40962 1,0.5 0.64676,0.1617 1.34628,-0.13074 2,0 0.51681,0.10337 0.98319,0.39664 1.5,0.5 0.80128,0.16026 1.69872,-0.16025 2.5,0 0.36544,0.0731 0.63845,0.40962 1,0.5 0.42561,0.10641 2.21297,-0.14351 2.5,0 0.21082,0.10541 0.27639,0.42547 0.5,0.5 0.29254,0.0975 2.57084,0 3,0 0.47092,0 2.21557,0.0948 2.5,0 0.22361,-0.0745 0.28918,-0.39459 0.5,-0.5 0.14907,-0.0745 0.33333,0 0.5,0 0.33333,0 0.68377,0.10541 1,0 0.22361,-0.0745 0.28918,-0.39459 0.5,-0.5 0.31426,-0.15713 1.68574,0.15714 2,0 0.21082,-0.1054 0.27639,-0.42546 0.5,-0.5 0.31623,-0.1054 0.67662,0.0809 1,0 0.36155,-0.0904 0.64645,-0.38214 1,-0.5 0.15811,-0.0527 0.35093,0.0745 0.5,0 0.21082,-0.1054 0.30388,-0.36925 0.5,-0.5 0.31009,-0.20672 0.68991,-0.29327 1,-0.5 0.39223,-0.26148 0.66667,-0.66666 1,-1 0.16667,-0.16666 0.33333,-0.33333 0.5,-0.5 0.16667,-0.16666 0.42546,-0.27639 0.5,-0.5 0.10541,-0.31622 0,-0.66666 0,-1 0,-1.16666 0,-2.33333 0,-3.5 0,-1.5 0,-3 0,-4.5 0,-0.33333 0.0654,-0.67314 0,-1 -0.20672,-1.03362 -0.79328,-1.96637 -1,-3 -0.0654,-0.32686 0.0808,-0.67661 0,-1 -0.0904,-0.36155 -0.36159,-0.65397 -0.5,-1 -1.2357,-3.08925 0.17259,-0.15482 -1,-2.5 -0.16667,-0.33333 -0.27639,-0.70185 -0.5,-1 -0.28284,-0.37712 -0.71716,-0.62287 -1,-1 -0.22361,-0.29814 -0.29328,-0.68991 -0.5,-1 -0.13074,-0.19611 -0.36926,-0.30388 -0.5,-0.5 -0.20672,-0.31008 -0.29328,-0.68991 -0.5,-1 -0.13074,-0.19611 -0.33333,-0.33333 -0.5,-0.5 -0.16667,-0.16666 -0.30388,-0.36925 -0.5,-0.5 -0.31009,-0.20672 -0.68991,-0.29327 -1,-0.5 -0.19612,-0.13074 -0.33333,-0.33333 -0.5,-0.5 -0.54422,-0.54421 -1.44095,-1.62729 -2,-2 -0.13868,-0.0924 -0.35093,0.0745 -0.5,0 -0.42164,-0.21081 -0.57836,-0.78918 -1,-1 -0.14907,-0.0745 -0.35093,0.0745 -0.5,0 -0.21082,-0.1054 -0.28918,-0.39459 -0.5,-0.5 -0.14907,-0.0745 -0.35093,0.0745 -0.5,0 -0.21082,-0.1054 -0.28918,-0.39459 -0.5,-0.5 -0.29814,-0.14907 -0.70186,0.14908 -1,0 -0.21082,-0.1054 -0.28918,-0.39459 -0.5,-0.5 -0.29814,-0.14907 -0.70186,0.14908 -1,0 -0.21082,-0.1054 -0.29789,-0.37873 -0.5,-0.5 -0.21209,-0.12725 -3.42893,-1.80964 -4,-2 -0.15811,-0.0527 -0.34189,0.0527 -0.5,0 -0.70711,-0.2357 -1.2769,-0.81922 -2,-1 -0.32338,-0.0808 -0.67662,0.0809 -1,0 -0.36155,-0.0904 -0.66667,-0.33333 -1,-0.5 -0.66667,-0.33333 -1.40372,-0.55278 -2,-1 -0.75425,-0.56568 -1.26379,-1.41103 -2,-2 -0.13014,-0.10411 -0.35093,0.0745 -0.5,0 -0.21082,-0.1054 -0.33333,-0.33333 -0.5,-0.5 -0.16667,-0.16666 -0.33333,-0.33333 -0.5,-0.5"
       id="path3399"
       inkscape:connector-curvature="0" />
    <path
       style="fill:none;fill-rule:evenodd;stroke:#000000;stroke-width:1px;stroke-linecap:butt;stroke-linejoin:miter;stroke-opacity:1"
       d="m 278,498.3622 c -0.66667,-0.16666 -1.32616,-0.36523 -2,-0.5 -0.83756,-0.16751 -0.2381,0.11905 -1,0.5 -0.14907,0.0745 -0.33333,0 -0.5,0 -0.16667,0 -0.33333,0 -0.5,0 -0.5906,0 -2.70267,-0.0991 -3,0 -0.22361,0.0745 -0.27639,0.42547 -0.5,0.5 -0.63246,0.21082 -1.36754,-0.21081 -2,0 -0.22361,0.0745 -0.27639,0.42547 -0.5,0.5 -0.31623,0.10541 -0.67662,-0.0808 -1,0 -0.36155,0.0904 -0.66667,0.33334 -1,0.5 -0.33333,0.16667 -0.68991,0.29328 -1,0.5 -0.19612,0.13075 -0.30388,0.36926 -0.5,0.5 -0.31009,0.20673 -0.64645,0.38215 -1,0.5 -0.15811,0.0527 -0.36132,-0.0924 -0.5,0 -0.58835,0.39224 -1,1 -1.5,1.5 -0.57049,0.5705 -2.03319,1.87759 -2.5,2.5 -0.22361,0.29815 -0.29328,0.68992 -0.5,1 -0.13074,0.19612 -0.33333,0.33334 -0.5,0.5 -0.32022,0.32022 -1.68806,1.5321 -2,2 -0.20672,0.31009 -0.27639,0.70186 -0.5,1 -0.42426,0.56569 -1.10777,0.91166 -1.5,1.5 -0.20672,0.31009 -0.29328,0.68992 -0.5,1 -0.26149,0.39224 -0.73851,0.60777 -1,1 -0.41345,0.62018 -0.58655,1.37983 -1,2 -0.13074,0.19612 -0.36926,0.30389 -0.5,0.5 -1.10158,0.2518 -0.2643,1.0286 -0.5,1.5 -0.10541,0.21082 -0.39459,0.28919 -0.5,0.5 -0.14907,0.29815 0.14907,0.70186 0,1 -0.10541,0.21082 -0.39459,0.28919 -0.5,0.5 -0.076,0.15202 0,1.65474 0,2 0,0.33334 0,0.66667 0,1 0,0.16667 0.0745,0.35093 0,0.5 -0.10541,0.21082 -0.39459,0.28919 -0.5,0.5 -0.0207,0.0414 -0.0214,1.43567 0,1.5 0.11785,0.35356 0.38215,0.64645 0.5,1 0.15811,0.47435 -0.15811,1.02566 0,1.5 0.0745,0.22361 0.42546,0.2764 0.5,0.5 0.10541,0.31623 -0.10541,0.68378 0,1 0.0745,0.22361 0.36926,0.30389 0.5,0.5 0.20672,0.31009 0.29328,0.68992 0.5,1 0.13074,0.19612 0.33333,0.33334 0.5,0.5 0.33333,0.33334 0.66667,0.66667 1,1 0.33333,0.33334 0.66667,0.66667 1,1 0.16667,0.16667 0.30388,0.36926 0.5,0.5 0.31009,0.20673 0.70186,0.2764 1,0.5 0.37712,0.28285 0.62288,0.71716 1,1 0.67005,0.50254 1.77973,0.7119 2.5,1 0.69205,0.27682 1.29289,0.7643 2,1 0.65192,0.21731 1.33926,0.31122 2,0.5 0.50677,0.1448 1,0.33334 1.5,0.5 0.5,0.16667 0.97825,0.42547 1.5,0.5 0.65997,0.0943 1.3424,-0.10959 2,0 0.36761,0.0613 0.63456,0.42692 1,0.5 0.49029,0.0981 1.0068,-0.0822 1.5,0 0.51988,0.0866 0.98012,0.41336 1.5,0.5 0.67131,0.11189 3.24167,0 4,0 0.27908,0 2.27112,0.0763 2.5,0 0.22361,-0.0745 0.28918,-0.39459 0.5,-0.5 0.4,-0.2 1.1,0.2 1.5,0 0.21082,-0.1054 0.28918,-0.39459 0.5,-0.5 0.32417,-0.16208 2.52894,0.15702 3,0 3.62171,-1.20723 -0.7883,0.14416 1.5,-1 0.14907,-0.0745 0.38215,0.11786 0.5,0 0.2357,-0.2357 -0.14907,-0.70185 0,-1 0.10541,-0.21081 0.39459,-0.28918 0.5,-0.5 0.14907,-0.29814 -0.10541,-0.68377 0,-1 0.11785,-0.35355 0.38215,-0.64644 0.5,-1 0.10541,-0.31622 -0.14907,-0.70185 0,-1 0.10541,-0.21081 0.36926,-0.30388 0.5,-0.5 0.20672,-0.31008 0.29328,-0.68991 0.5,-1 0.26149,-0.39223 0.78918,-0.57836 1,-1 0.0745,-0.14907 -0.0527,-0.34188 0,-0.5 0.2357,-0.7071 0.66667,-1.33333 1,-2 0.16667,-0.33333 0.40961,-0.63844 0.5,-1 0.8904,-3.56159 -1.51325,2.53314 0.5,-2.5 0.13841,-0.34602 0.30826,-0.68043 0.5,-1 0.30917,-0.51528 0.77682,-0.94205 1,-1.5 0.1238,-0.30949 -0.0654,-0.67314 0,-1 0.10336,-0.51681 0.39664,-0.98318 0.5,-1.5 0.0654,-0.32686 0,-0.66666 0,-1 0,-1.16666 0,-2.33333 0,-3.5 0,-1.83333 0,-3.66666 0,-5.5 0,-0.5 0,-1 0,-1.5 0,-0.33333 0.0808,-0.67661 0,-1 -0.0904,-0.36155 -0.40961,-0.63844 -0.5,-1 -0.0808,-0.32338 0.0808,-0.67661 0,-1 -0.24824,-0.99294 -1.25176,-2.00705 -1.5,-3 -0.0808,-0.32338 0.10541,-0.68377 0,-1 -0.0745,-0.2236 -0.39459,-0.28918 -0.5,-0.5 -0.0745,-0.14907 0.0527,-0.34188 0,-0.5 -1.20724,-3.6217 0.14415,0.78831 -1,-1.5 -0.0745,-0.14907 0.0745,-0.35092 0,-0.5 -0.21082,-0.42163 -0.78918,-0.57836 -1,-1 -0.0745,-0.14907 0.0745,-0.35092 0,-0.5 -0.55276,-1.10552 -0.31032,-0.15516 -1,-0.5 -2.2883,-1.14415 2.12171,0.20724 -1.5,-1 -0.2821,-0.094 -1.17145,0 -1.5,0 -1,0 -2,0 -3,0 -0.83333,0 -1.66667,0 -2.5,0 -0.16667,0 -0.38215,-0.11785 -0.5,0 -0.05,0.05 -0.05,1.45 0,1.5 0.11785,0.11786 0.33333,0 0.5,0"
       id="path3401"
       inkscape:connector-curvature="0" />
    <path
       style="fill:none;fill-rule:evenodd;stroke:#000000;stroke-width:1px;stroke-linecap:butt;stroke-linejoin:miter;stroke-opacity:1"
       d="m 290,399.8622 c 12.66667,0 25.33333,0 38,0 2.16667,0 4.33333,0 6.5,0 0.42656,0 3.31422,-0.0929 3.5,0 0.21082,0.10541 0.28918,0.3946 0.5,0.5 0.18082,0.0904 2.15223,0 2.5,0 -0.16667,0.66667 -0.36523,1.32616 -0.5,2 -0.0654,0.32686 0,0.66667 0,1 0,1 0,2 0,3 0,2.83334 0,5.66667 0,8.5 0,1.33334 0,2.66667 0,4 0,0.66667 -0.0943,1.34004 0,2 0.0745,0.52175 0.42546,0.97826 0.5,1.5 0.18856,1.31994 -0.18856,2.68007 0,4 0.0745,0.52175 0.43463,0.97703 0.5,1.5 0.10336,0.8269 -0.18078,1.68652 0,2.5 0.16169,0.72761 0.79523,1.28333 1,2 0.13736,0.48077 -0.062,1.00387 0,1.5 0.10541,0.84328 0.39459,1.65673 0.5,2.5 0.16538,1.32304 -0.14724,2.67483 0,4 0.0759,0.68299 0.40282,1.31973 0.5,2 0.0707,0.49498 -0.0822,1.00681 0,1.5 0.0867,0.51988 0.39664,0.98319 0.5,1.5 0.0654,0.32686 -0.0471,0.67002 0,1 0.12019,0.8413 0.37981,1.65871 0.5,2.5 0.0943,0.65997 -0.13074,1.34628 0,2 0.10336,0.51682 0.39664,0.98319 0.5,1.5 0.16026,0.80129 -0.16026,1.69872 0,2.5 0.0731,0.36545 0.40961,0.63845 0.5,1 0.16169,0.64677 -0.16169,1.35324 0,2 0.0904,0.36156 0.38215,0.64645 0.5,1 0.0527,0.15812 0,0.33334 0,0.5 0,0.57877 -0.1116,2.05361 0,2.5 0.0904,0.36156 0.38215,0.64645 0.5,1 0.13969,0.41907 -0.16568,1.66864 0,2 0.10541,0.21082 0.39459,0.28919 0.5,0.5 0.2,0.4 -0.2,1.1 0,1.5 0.10541,0.21082 0.42546,0.2764 0.5,0.5 0.0922,0.27651 0,2.49648 0,3 0,2.16667 0,4.33334 0,6.5 0,1.5 0,3 0,4.5 0,0.40252 0.10461,1.68618 0,2 -0.11785,0.35356 -0.38215,0.64645 -0.5,1 -0.15,0.45 0.15,1.05 0,1.5 -0.11785,0.35356 -0.38215,0.64645 -0.5,1 -0.11464,0.34392 0.14751,1.20499 0,1.5 -0.10541,0.21082 -0.39459,0.28919 -0.5,0.5 -0.0745,0.14908 0.0745,0.35093 0,0.5 -0.10541,0.21082 -0.39459,0.28919 -0.5,0.5 -0.2,0.4 0.2,1.1 0,1.5 -0.10541,0.21082 -0.42546,0.2764 -0.5,0.5 -0.10541,0.31623 0.0808,0.67662 0,1 -0.0904,0.36156 -0.38215,0.64645 -0.5,1 -0.0527,0.15812 0.0745,0.35093 0,0.5 -0.10541,0.21082 -0.39459,0.28919 -0.5,0.5 -0.0745,0.14908 0,0.33334 0,0.5 -0.16667,0.33334 -0.29328,0.68992 -0.5,1 -0.76277,1.14416 -0.39578,-0.31264 -1,1.5 -0.10541,0.31623 0.14907,0.70186 0,1 -0.10541,0.21082 -0.36926,0.30389 -0.5,0.5 -1.68394,2.52591 -0.004,0.0116 -0.5,1.5 -0.11785,0.35356 -0.38215,0.64645 -0.5,1 -0.0527,0.15812 0.0745,0.35093 0,0.5 -1.14415,2.28831 0.20724,-2.1217 -1,1.5 -0.10541,0.31623 0.14907,0.70186 0,1 -0.10541,0.21082 -0.39459,0.28919 -0.5,0.5 -0.2,0.4 0.2,1.1 0,1.5 -0.10541,0.21082 -0.39459,0.28919 -0.5,0.5 -0.0745,0.14908 0,0.33334 0,0.5 0,0.16667 0,0.33334 0,0.5 0,0.52892 0.0859,3.24242 0,3.5 -0.0745,0.22361 -0.39459,0.28919 -0.5,0.5 -0.0657,0.13148 0,1.73854 0,2 0,0.48362 -0.0741,2.85171 0,3 0.61785,1.23571 0.5,-0.17258 0.5,1 0,0.16667 0.16667,0.5 0,0.5 -0.16667,0 0.11785,-0.38214 0,-0.5 -0.11785,-0.11785 -0.35093,0.0745 -0.5,0 -0.21082,-0.1054 -0.28918,-0.39459 -0.5,-0.5 -0.28703,-0.14351 -2.07439,0.10641 -2.5,0 -0.36155,-0.0904 -0.63456,-0.42691 -1,-0.5 -0.49029,-0.0981 -1,0 -1.5,0 -1.33333,0 -2.66667,0 -4,0 -2.33333,0 -4.66667,0 -7,0 -0.51996,0 -2.60669,-0.0983 -3,0 -0.36155,0.0904 -0.64645,0.38215 -1,0.5 -0.28964,0.0965 -1.56671,0 -2,0 -2.16667,0 -4.33333,0 -6.5,0 -0.34777,0 -2.31918,-0.0904 -2.5,0 -0.21082,0.10541 -0.28918,0.3946 -0.5,0.5 -0.18082,0.0904 -2.15223,0 -2.5,0 -1.16667,0 -2.33333,0 -3.5,0 -0.22518,0 -1.34783,0.0761 -1.5,0 -0.21082,-0.1054 -0.28918,-0.39459 -0.5,-0.5 -0.29768,-0.14884 -2.07903,0.14033 -2.5,0 -1.94721,-0.64907 -0.0468,-0.5 -2,-0.5 -0.12126,0 -1.48392,0.0161 -1.5,0 -0.11785,-0.11785 0.0745,-0.35092 0,-0.5 -0.10541,-0.21081 -0.33333,-0.33333 -0.5,-0.5"
       id="path3403"
       inkscape:connector-curvature="0" />
    <path
       style="fill:none;fill-rule:evenodd;stroke:#000000;stroke-width:1px;stroke-linecap:butt;stroke-linejoin:miter;stroke-opacity:1"
       d="m 296,466.3622 c 0.66667,-0.16666 1.32217,-0.38702 2,-0.5 0.6576,-0.10959 1.34628,0.13075 2,0 0.51681,-0.10336 0.98869,-0.37217 1.5,-0.5 0.82446,-0.20611 1.6704,-0.31564 2.5,-0.5 0.67082,-0.14907 1.31972,-0.40281 2,-0.5 0.49497,-0.0707 1.00503,0.0707 1.5,0 0.68028,-0.0972 1.31702,-0.42411 2,-0.5 0.82824,-0.092 1.67176,0.092 2.5,0 1.36596,-0.15177 2.63404,-0.84822 4,-1 0.82824,-0.092 1.67176,0.092 2.5,0 0.68298,-0.0759 1.31972,-0.40281 2,-0.5 0.49497,-0.0707 1.00503,0.0707 1.5,0 1.29021,0.51706 1.96638,-0.79327 3,-1 2.8435,0 0.32918,0.22361 2.5,-0.5 0.31383,-0.1046 1.59748,0 2,0 1.16667,0 2.33333,0 3.5,0 1.66667,0 3.33333,0 5,0 0.34777,0 2.31918,-0.0904 2.5,0 0.21082,0.10541 0.28918,0.3946 0.5,0.5 0.14907,0.0745 0.35093,-0.0745 0.5,0 0.21082,0.10541 0.28918,0.3946 0.5,0.5 0.29814,0.14908 0.7643,-0.2357 1,0 0.11785,0.11786 -0.11785,0.38215 0,0.5 0.11785,0.11786 0.33333,0 0.5,0 0.16667,0 0.33333,0 0.5,0 0.16667,0 0.5,-0.16666 0.5,0 0,0.16667 -0.66667,0 -0.5,0 0.5,0 1,0 1.5,0"
       id="path3405"
       inkscape:connector-curvature="0" />
    <text
       xml:space="preserve"
       style="font-style:normal;font-weight:normal;font-size:13.75px;line-height:125%;font-family:sans-serif;letter-spacing:0px;word-spacing:0px;fill:#000000;fill-opacity:1;stroke:none;stroke-width:1px;stroke-linecap:butt;stroke-linejoin:miter;stroke-opacity:1"
       x="376"
       y="440.86221"
       id="text3407"
       sodipodi:linespacing="125%"><tspan
         sodipodi:role="line"
         id="tspan3409"
         x="376"
         y="440.86221">&lt;a b c&gt;</tspan></text>
  </g>
</svg>
