<?xml version="1.0" encoding="UTF-8" standalone="no"?>
<!DOCTYPE svg PUBLIC "-//W3C//DTD SVG 1.1//EN"
 "http://www.w3.org/Graphics/SVG/1.1/DTD/svg11.dtd">
<!-- Generated by graphviz version 2.41.20170905.1655 (20170905.1655)
 -->
<!-- Title: %3 Pages: 1 -->
<svg width="260pt" height="132pt"
 viewBox="0.00 0.00 260.00 132.00" xmlns="http://www.w3.org/2000/svg" xmlns:xlink="http://www.w3.org/1999/xlink">
<g id="graph0" class="graph" transform="scale(1 1) rotate(0) translate(4 128)">
<title>%3</title>
<polygon fill="white" stroke="transparent" points="-4,4 -4,-128 256,-128 256,4 -4,4"/>
<!-- c -->
<g id="node1" class="node">
<title>c</title>
<polygon fill="none" stroke="black" points="53.82,-121.75 -0.18,-121.75 -0.18,-85.75 53.82,-85.75 53.82,-121.75"/>
<text text-anchor="middle" x="26.82" y="-100.05" font-family="Times,serif" font-size="14.00">c</text>
</g>
<!-- e81d77 -->
<g id="node6" class="node">
<title>e81d77</title>
<ellipse fill="black" stroke="black" cx="69.03" cy="-70.29" rx="1.8" ry="1.8"/>
</g>
<!-- c&#45;&#45;e81d77 -->
<g id="edge1" class="edge">
<title>c&#45;&#45;e81d77</title>
<path fill="none" stroke="black" d="M49.9,-85.45C57.29,-79.59 64.36,-73.99 67.43,-71.56"/>
</g>
<!-- d -->
<g id="node2" class="node">
<title>d</title>
<polygon fill="none" stroke="black" points="132.87,-123.93 78.87,-123.93 78.87,-87.93 132.87,-87.93 132.87,-123.93"/>
<text text-anchor="middle" x="105.87" y="-102.23" font-family="Times,serif" font-size="14.00">d</text>
</g>
<!-- e -->
<g id="node3" class="node">
<title>e</title>
<polygon fill="none" stroke="black" points="108.66,-35.51 54.66,-35.51 54.66,0.49 108.66,0.49 108.66,-35.51"/>
<text text-anchor="middle" x="81.66" y="-13.81" font-family="Times,serif" font-size="14.00">e</text>
</g>
<!-- f -->
<g id="node4" class="node">
<title>f</title>
<polygon fill="none" stroke="black" points="186.41,-57.33 132.41,-57.33 132.41,-21.33 186.41,-21.33 186.41,-57.33"/>
<text text-anchor="middle" x="159.41" y="-35.63" font-family="Times,serif" font-size="14.00">f</text>
</g>
<!-- g -->
<g id="node5" class="node">
<title>g</title>
<polygon fill="none" stroke="black" points="251.85,-47.56 197.85,-47.56 197.85,-11.56 251.85,-11.56 251.85,-47.56"/>
<text text-anchor="middle" x="224.85" y="-25.86" font-family="Times,serif" font-size="14.00">g</text>
</g>
<!-- f&#45;&#45;g -->
<g id="edge4" class="edge">
<title>f&#45;&#45;g</title>
<path fill="none" stroke="black" d="M186.79,-35.24C190.43,-34.7 194.16,-34.14 197.8,-33.6"/>
</g>
<!-- e81d77&#45;&#45;d -->
<g id="edge2" class="edge">
<title>e81d77&#45;&#45;d</title>
<path fill="none" stroke="black" d="M70.62,-71.82C73.59,-74.7 80.33,-81.22 87.13,-87.79"/>
</g>
<!-- e81d77&#45;&#45;e -->
<g id="edge3" class="edge">
<title>e81d77&#45;&#45;e</title>
<path fill="none" stroke="black" d="M69.45,-68.53C70.68,-63.42 74.34,-48.1 77.34,-35.57"/>
</g>
</g>
</svg>
